<mxfile host="app.diagrams.net" modified="2024-04-04T05:41:30.236Z" agent="Mozilla/5.0 (Windows NT 10.0; Win64; x64; rv:124.0) Gecko/20100101 Firefox/124.0" etag="K6VRwNVv0tTHdoYn7VfT" version="24.0.0" type="device">
  <diagram name="Seite-1" id="oFcoev7RFAyhTQgB43df">
    <mxGraphModel dx="2074" dy="746" grid="1" gridSize="10" guides="1" tooltips="1" connect="1" arrows="1" fold="1" page="1" pageScale="1" pageWidth="1169" pageHeight="827" math="0" shadow="0">
      <root>
        <mxCell id="0" />
        <mxCell id="1" parent="0" />
        <mxCell id="CqSl_4f9jDyDH8PWOEyv-23" value="Eigenschaften" style="swimlane;fontStyle=0;childLayout=stackLayout;horizontal=1;startSize=30;horizontalStack=0;resizeParent=1;resizeParentMax=0;resizeLast=0;collapsible=1;marginBottom=0;whiteSpace=wrap;html=1;" vertex="1" parent="1">
          <mxGeometry x="50" y="600" width="140" height="210" as="geometry" />
        </mxCell>
        <mxCell id="CqSl_4f9jDyDH8PWOEyv-36" value="Name" style="text;strokeColor=none;fillColor=none;align=left;verticalAlign=middle;spacingLeft=4;spacingRight=4;overflow=hidden;points=[[0,0.5],[1,0.5]];portConstraint=eastwest;rotatable=0;whiteSpace=wrap;html=1;" vertex="1" parent="CqSl_4f9jDyDH8PWOEyv-23">
          <mxGeometry y="30" width="140" height="30" as="geometry" />
        </mxCell>
        <mxCell id="CqSl_4f9jDyDH8PWOEyv-64" value="Geschlecht" style="text;strokeColor=none;fillColor=none;align=left;verticalAlign=middle;spacingLeft=4;spacingRight=4;overflow=hidden;points=[[0,0.5],[1,0.5]];portConstraint=eastwest;rotatable=0;whiteSpace=wrap;html=1;" vertex="1" parent="CqSl_4f9jDyDH8PWOEyv-23">
          <mxGeometry y="60" width="140" height="30" as="geometry" />
        </mxCell>
        <mxCell id="CqSl_4f9jDyDH8PWOEyv-24" value="Fellfarbe" style="text;strokeColor=none;fillColor=none;align=left;verticalAlign=middle;spacingLeft=4;spacingRight=4;overflow=hidden;points=[[0,0.5],[1,0.5]];portConstraint=eastwest;rotatable=0;whiteSpace=wrap;html=1;" vertex="1" parent="CqSl_4f9jDyDH8PWOEyv-23">
          <mxGeometry y="90" width="140" height="30" as="geometry" />
        </mxCell>
        <mxCell id="CqSl_4f9jDyDH8PWOEyv-25" value="Augenfarbe" style="text;strokeColor=none;fillColor=none;align=left;verticalAlign=middle;spacingLeft=4;spacingRight=4;overflow=hidden;points=[[0,0.5],[1,0.5]];portConstraint=eastwest;rotatable=0;whiteSpace=wrap;html=1;" vertex="1" parent="CqSl_4f9jDyDH8PWOEyv-23">
          <mxGeometry y="120" width="140" height="30" as="geometry" />
        </mxCell>
        <mxCell id="CqSl_4f9jDyDH8PWOEyv-26" value="Größe" style="text;strokeColor=none;fillColor=none;align=left;verticalAlign=middle;spacingLeft=4;spacingRight=4;overflow=hidden;points=[[0,0.5],[1,0.5]];portConstraint=eastwest;rotatable=0;whiteSpace=wrap;html=1;" vertex="1" parent="CqSl_4f9jDyDH8PWOEyv-23">
          <mxGeometry y="150" width="140" height="30" as="geometry" />
        </mxCell>
        <mxCell id="CqSl_4f9jDyDH8PWOEyv-27" value="Gewicht" style="text;strokeColor=none;fillColor=none;align=left;verticalAlign=middle;spacingLeft=4;spacingRight=4;overflow=hidden;points=[[0,0.5],[1,0.5]];portConstraint=eastwest;rotatable=0;whiteSpace=wrap;html=1;" vertex="1" parent="CqSl_4f9jDyDH8PWOEyv-23">
          <mxGeometry y="180" width="140" height="30" as="geometry" />
        </mxCell>
        <mxCell id="CqSl_4f9jDyDH8PWOEyv-28" value="Aktionen" style="swimlane;fontStyle=0;childLayout=stackLayout;horizontal=1;startSize=30;horizontalStack=0;resizeParent=1;resizeParentMax=0;resizeLast=0;collapsible=1;marginBottom=0;whiteSpace=wrap;html=1;" vertex="1" parent="1">
          <mxGeometry x="200" y="600" width="140" height="150" as="geometry" />
        </mxCell>
        <mxCell id="CqSl_4f9jDyDH8PWOEyv-29" value="Sitzen" style="text;strokeColor=none;fillColor=none;align=left;verticalAlign=middle;spacingLeft=4;spacingRight=4;overflow=hidden;points=[[0,0.5],[1,0.5]];portConstraint=eastwest;rotatable=0;whiteSpace=wrap;html=1;" vertex="1" parent="CqSl_4f9jDyDH8PWOEyv-28">
          <mxGeometry y="30" width="140" height="30" as="geometry" />
        </mxCell>
        <mxCell id="CqSl_4f9jDyDH8PWOEyv-30" value="Hinlegen" style="text;strokeColor=none;fillColor=none;align=left;verticalAlign=middle;spacingLeft=4;spacingRight=4;overflow=hidden;points=[[0,0.5],[1,0.5]];portConstraint=eastwest;rotatable=0;whiteSpace=wrap;html=1;" vertex="1" parent="CqSl_4f9jDyDH8PWOEyv-28">
          <mxGeometry y="60" width="140" height="30" as="geometry" />
        </mxCell>
        <mxCell id="CqSl_4f9jDyDH8PWOEyv-31" value="Schwanz wedeln" style="text;strokeColor=none;fillColor=none;align=left;verticalAlign=middle;spacingLeft=4;spacingRight=4;overflow=hidden;points=[[0,0.5],[1,0.5]];portConstraint=eastwest;rotatable=0;whiteSpace=wrap;html=1;" vertex="1" parent="CqSl_4f9jDyDH8PWOEyv-28">
          <mxGeometry y="90" width="140" height="30" as="geometry" />
        </mxCell>
        <mxCell id="CqSl_4f9jDyDH8PWOEyv-32" value="Bellen" style="text;strokeColor=none;fillColor=none;align=left;verticalAlign=middle;spacingLeft=4;spacingRight=4;overflow=hidden;points=[[0,0.5],[1,0.5]];portConstraint=eastwest;rotatable=0;whiteSpace=wrap;html=1;" vertex="1" parent="CqSl_4f9jDyDH8PWOEyv-28">
          <mxGeometry y="120" width="140" height="30" as="geometry" />
        </mxCell>
        <mxCell id="CqSl_4f9jDyDH8PWOEyv-33" value="" style="group" vertex="1" connectable="0" parent="1">
          <mxGeometry x="50" y="270" width="306" height="315" as="geometry" />
        </mxCell>
        <mxCell id="CqSl_4f9jDyDH8PWOEyv-63" value="" style="group" vertex="1" connectable="0" parent="CqSl_4f9jDyDH8PWOEyv-33">
          <mxGeometry width="306" height="315" as="geometry" />
        </mxCell>
        <mxCell id="CqSl_4f9jDyDH8PWOEyv-1" value="" style="shape=image;verticalLabelPosition=bottom;labelBackgroundColor=default;verticalAlign=top;aspect=fixed;imageAspect=0;image=data:image/png,iVBORw0KGgoAAAANSUhEUgAAATIAAAEuCAYAAAAN0p4lAAAgAElEQVR4Xu2dD2hX19nHnym2onMVqWQTg9O6habOIAsNtpJWFGnwD40hm6S4lnTBzBms4p9qW0OnaJ2iswkuI63YyUJYiEprZ7EWnbSzKXZOlynSWOosoS4uU1pFJ/q+/Z7tZhqT3z33d/+dc+/3QNjb13PPn89zft97zznPec43/u/rJEwkQAIkYDGBb1DILLYem04CJKAIUMg4EEiABKwnQCGz3oTsAAmQAIWMY4AESMB6AhQy603IDpAACVDIOAZIgASsJ0Ahs96E7AAJkACFjGOABEjAegIUMutNyA6QAAlQyDgGSIAErCdAIbPehOwACZAAhYxjgARIwHoCFDLrTcgOkAAJUMg4BkiABKwnQCGz3oTsAAmQAIWMY4AESMB6AhQy603IDpAACVDIOAZIgASsJ0Ahs96E7AAJkACFjGOABEjAegIUMutNyA5EQaCzs1N27dolX3zxhapuypQpUlZWFkXVrEODAIVMAxKzkMClS5eko6NDxowZIzdu3JCBAwdKTk4OwRhCgEJmiCHYDHMIXL16Va5cuSKHDx+W4uLijIIFUcPfkCFDzOlACltCIUuh0dnlzASOHj0qdXV1kpeXJytXrpTBgwf3+0Bra6tA+ObPn0+sMRKgkMUIn1WbRwBfV6tWrZKioiKZPXt2RhFD6zHlXLZsmWzdulWGDRtmXodS0iIKWUoMzW7qETh27Jjs3btX1q1bp/fA17m2b98uDz74oEydOlX7GWYMlgCFLFieLM1yAs6UcsaMGdo9aW9vl+7ubrWexhQPAQpZPNxZq4EErl27JosWLZJXX32Vi/cG2idTkyhklhmMzQ2XANa8hg8fHm4lt5V+8+ZN9TUHd44RI0ZEVm/SKqKQJc2i7E8sBOBjhjR+/Hit+iFgb7zxhrS1tcmgQYPUHzYMkPBv2HTItFuqVUmKMlHIUmRsdrV/AnChQMrWH+zAgQNy7tw5qaqq0sZ86NAhyc/Pv8tPDeL2zjvvuLp+aFeUgowUshQYmV10J7Bnzx65ePGiJyG6vdRPP/1UGhsbZcOGDRkrg2DqiOXOnTvlyy+/lJqaGvfGM4dQyDgISOBrAvAde+qpp2TChAlZ8cBUsLKyUolZf1PCM2fOKFeNzZs3q6lkpgQRW7x4scrPKaa7SShk7oyYI+EELly4IGvXrpX6+npfPcX0Ei4YfQkPFvTXrFkjCxcuVNNJnXTw4EEpLCyMdPNBp10m5qGQmWgVtilSAqdOnRJMDWfNmhVKvVi8r62tVSLnxT8tlMYktFAKWUINy26ZRQBCOW7cOLMalaDWUMgSZEx2JV4C8EHDTmRpaWkgDUEMNOxgBlVeII0ytBAKmaGGYbOiIXDkyBEZO3as5Obm+q7QORnw2muvqbLOnz+vYphlewazq6tLnfnctm2b77YlvQAKWdItzP5lJICdwdWrVwcWJBFhf1AmvPSxLjZz5sysz2DCVQNHpnbs2EEruhCgkHGIpJYAHFh/9atf9XjUBwGioaFBxTE7efKk3HvvvVJdXe2r2IqKCmlqavJVRhoeppClwcrsY58EWlpa1P+/vLw8MEIQR7hawBUDX2Z+fcAw9WVUDXfzUMjcGTFHQglgJxEHxHlY234DU8jstyF7QAKpJ0AhS/0QIACTCTQ3N8sTTzxB734u9ps8TNm2uAjguNDPf/7zwHYrw+oH3C/mzp2rfawprHaYXi6/yEy3ENsXOAGcrVy/fr0V/lkUMj3zU8j0ODFXggggZM9XX31lxRVuFDK9gUch0+PEXAkisHHjRuWomm3InihRnDhxQt1uHmX47Sj7F1RdFLKgSLIcawggGgUS4uQzJYMAhSwZdmQvSCDVBChkqTZ/+jqPQ9w4JG7L1xguDMZxJ+xccnrZ/3ilkKXvt5zaHiN89JIlS+TXv/61a6hpUyAhosZbb70l77//vixYsIBuGP0YhkJmyohlO0IngFhhp0+fVuGmbUuIS7Z7927lNmLL12SUjClkUdJmXbES2LJlizz88MMyZcqUWNsRROUIuogLT7CjySS8RYmDID0EcMXavHnzfEekMIHY8ePH1Y1NkyZNUv5wfqNsmNAnP23gF5kfenyWBGIkgMCLOIuJa+YQxFHnvswYmxtq1RSyUPGycBIIn0B7e7sVzr1hkqCQhUmXZRtBAGtJra2talqZ9IS+ul3+m0QGFLIkWpV9uoMA1pP279+vYvMnOeEw/CuvvKKmmWnzOaOQJXlks2+KABbFR48eLSUlJYkngi9PnM986aWXUvVlRiFL/NBOdwdxrhJ+Yxs2bEhNSOu6ujoZNWqUlJWVpcb4FLLUmDqdHYWQYTG8oKAgNQAwxcR9BJMnT05NnylkqTE1O0oCySVAIUuubdkzEkgNAQpZakydvo7CURT3S9bU1KSv81/3GNFl4fWfhmNMFLJUDvF0dHrXrl3yzW9+U0pLS9PR4V69RP/hU5YG/zkKWSqHeDo6vWjRIuWGkJOTk44O9+olDpbjqwy7mEmPmEEhS+UQT36nz507Jw0NDcrtIs1p06ZNMmfOHMnLy0s0BgpZos2b7s6l9bjO7VaH+0nSv8bQXwpZun/r7D0JJIIAhSwRZmQnbifQ3d2tgg6mdW2sr9GAo0twkIXHfxIThSyJVk15n1paWgSx7uF6wPQfAnBDgZg99thjMnHixMSF/aGQcaQnjgAuGKmurk78ArdXw+HYEg6U23LLupf+Uci80GJe4wlgtxI7dfX19ca31YQG4kKW9957Tx5//HF55JFHrI0ySyEzYTSxDYERgDc/xGzGjBmBlZnkgrCriXszjxw5In/961+lqqpKioqKrOsyhcw6k7HBJBAOAdz7CVcNJ/Y/rqCD/5kNQRopZOGMCZZKAtYTwK1TuBj4Bz/4gZp6mhwKiUJm/XBjBxwCx44dk2HDhnGRP8Ahgd1fiBkuNjb58D2FLECjs6h4Cbz44ovqgPSECRPibUjCa8eU8/Dhw1JcXCyFhYVGhNSmkCV80KWle4iKunbtWu5WRmBwOBs7Ynb+/Hnl6oKLguNMFLI46bPuwAjs2bMnkf5RgQEKqaCuri61QTBixAhVA3aMcdFL1Oc7KWQhGZjFRksAX2QDBgyQkSNHRlsxa7uDwMaNG5WYTZs2TaZOnRrZhS8UMg5EEiCBQAlgugknW/j0RRVGiUIWqAlZGAmQQBwEKGRxUGedgRLA2crly5cnNrJDoLASWhiFLKGGTUu3MH3Zvn27bNu2LS1dtqqfixcvjsQ2FDKrhgUb25sALtgYPHiwlJeXE46BBCoqKqSpqSn0llHIQkfMCsIkkKYrz8LkGFbZFLKwyLJcEiCBSAjgEDrWL1977bXQ6+MXWeiIWQEJpJMAQgRdvnw5El8yClk6x5j1vcaPBIfEbYydZT18AztAITPQKGySO4H29nYVg762ttY9M3NESgAvmb1798rMmTPVRkwUiUIWBWXWETiBxsZGdaavpKQk8LJZoD8CuBj56tWrKuzPoEGD/BWm+TSFTBMUs5lDAG/8hQsXquMvzmFlc1qX7pYgZPbbb78tL7/8cmRfYyBOIUv3uLOy99gNO3r0KOPyG2g9OCfPnj1bcnNzI20dhSxS3KyMBEggDAIUsjCoskwSIIFICVDIIsXNyvwSwJQSceQR64rJDAKwx/r16+X555+P7V5MCpkZY4Gt0CSAReQ5c+bEHlpZs7mpyNbc3Czd3d1qAyauRCGLizzr9Uygs7NTcLayrq4u8lDKnhubkgcQRBE22bx5s7rBKq5EIYuLPOv1TAAOsNevXxccRGYygwDcLZBwo1KciUIWJ33W7YkA/Mdu3boVmZOlp8Yxc6wEKGSx4mflJGAnAXjuDxkyxJjGU8iMMQUbkokA1sdGjRpFSAYQgEMyLkPGOVdTTlZQyAwYGGxCZgJOXKv6+vpIj73QLncTwPQeC/vf//73pbS01BhEFDJjTMGG9EfgwIED0tHREev2Pq3zHwLwFxs+fLgsWLDAqJ1jChlHqPEEMI1BTP6CggLj25r0Bpo6xaeQJX3kWd6/GzduyO9+9zuZP3++UV8AlmP11HzTFvb7ajyFzJNJmZkE0kXg+PHj8vrrr6tpfX5+vrGdp5AZaxo2jATiI4ANFnwJnz59Wq2HmSxioEQhi2+ssGYXAvAah69SYWEhWUVM4NKlS/KHP/xB5s6da8VOMYUs4gHC6vQJLFu2TCorK43/GtDvkbk5L1y4INgdRlBE7EralihktlksJe09deqU7NixQ/ksMYVH4MyZM/Lmm28K/vexxx5TF4aY4uTqpdcUMi+0mDcyArjAYsyYMbxcJGTiiO925coVJWJRXRQSRpcoZGFQZZm+CWDLHz8sm39cviEEXAC+cj/44APB+tfy5csDLj3e4ihk8fJn7SQQOgFEcF25cqVatH/00UdlypQpVk4fM4GikIU+jFiBFwL4Euvq6lLTSqbsCMB1ArewT548uWfHEYv5OTk52RVowVMUMguMlKYm7tu3T/7+97/zXGUWRod4OedS4bIyb968xH159YeFQpbFgOEj4RBAZAW4XDz33HP8IvsvYqxrITkOqefOnVNfrPCvu3jxovrKysvLU3kgZDjSNWnSJCt8v4IcRRSyIGmyLF8E4ACLH+PSpUt9lZOUhzHNfuGFF6SqqqpHyMAHnLDuNXLkSLXmZbrXfRT2oJBFQZl1aBFob2+X++67L/JbqrUaF0Mm+Ha1tLSoIIZMmQlQyDhCSMBQAphW7t69m0KmYR8KmQYkZgmXANbGBg4cGG4lFpaO9S44q9p4ZChq3BSyqImzvrsIYM0HEWBxrpKJBLIhQCHLhhqfCYwAFrRXrFihHDZzc3MDK5cFpYsAhSxd9jaut83NzQIx49fY3aZpa2uTs2fP8kJijVFLIdOAxCzhEWhqapInn3zSqDsSw+utt5Ix5caCf3V1tbcHU5ibQpZCo5vQZedasYqKCk4p+zEIhUx/pFLI9FkxZ4AEEAML8eDhI8Udy77BUsj0BxyFTJ8VcwZEAMdscD/iunXrlHc6U98E4L0PF4xhw4YRkQsBChmHSOQEEMwPCdEZmEggCAIUsiAosgwSIIFYCVDIYsWfnsqxuA+nVydSQ3p6nn1P9+/frx4uKSnJvpCUPEkhS4mh4+wmRKy+vl4Q8I8HoPUt0draqjKXlZXpP5TSnBSylBo+qm5jwXrLli0ydOhQFSyRMfj1yVPI9FlRyPRZMWcWBBCK5uOPP5Yf//jHdLPwyI9Cpg+MQqbPijk1CcBlAIlfX5rA+smGo1tIiAbLlJkAhYwjJDACELCDBw/KW2+9JU8//bQUFRUFVjYLIoFMBChkHB+BEDhx4oTU1dXJuHHj1KUX+F8mEoiKAIUsKtIJqqezs1MdZsYuZGlpqeoZ/m8njnyCuhprV+h+oY+fQqbPKlU5IUoQrMuXL6tbeRyxWrx4sbqhZ+LEiVJQUEDv/BBHBRf79eFSyPRZJTYn1rachXn4fNXU1KgQy6NGjVJ/+G8nYQGai8/RDAUKmT5nCpk+q0TlvHTpkrpW7OTJk/LZZ5/Jq6++2iNQ3d3dqbnY1WSjUsj0rUMh02eVqJxwUsWlFj/84Q/VvYh0lTDPvHS/0LcJhUyflfU5+aVlvQnZgX4IUMhSMDSw7tXY2KgW7nHJBxMJJI0AhSxpFu3VH6yFbdu2Ta15IfY7p5D2GJzuF/q2opDps7IyJ0JKX79+XcrLy61sf5obzcV+fetTyPRZMScJREqAQqaPm0Kmz8qanIcOHVJx3gsLC61pMxt6N4GGhga1o1xcXEw8LgQoZAkaIljUxz2ROPe4dOlS5czKZC8BHPvCmiZOUjBlJkAhS9AIwaI+PPKfe+45et8nyK7sijsBCpk7I2tyIIjh+PHjGcDQGouxoUERoJAFRZLlkEDABLBM8MADDzCumwZXCpkGJJOz7Nq1S32F8Y5Ik62UXdu42K/PjUKmz8q4nBAxxAWrra3lgrBx1vHfIAqZPkMKmT4ro3LC6/u9995T16vh8DdT8ghQyPRtSiHTZ2VUzuPHj8vYsWMpYkZZJdjG0P1CnyeFTJ8Vc5IACRhKgEJmqGH6atb58+eVs+usWbMsajWbSgLhE6CQhc84kBoQZO+FF15QNxTxmrVAkBpfCN0v9E1EIdNnFVtOHD3avHmzumKNUSxiM0PkFXOxXx85hUyfVWw5L1y4IHv27JGqqip67cdmhegrppDpM6eQ6bNiThKIlACFTB83hUyfVeQ5Ed0V4XgGDhwYed2sMH4CdL/QtwGFTJ9VpDlxQS489rG471yQG2kDWBkJWESAQmaosTCtuOeee6SystLQFrJZJGAOAQqZObboaUlbW5u0tLTIhg0beFmIgfaJqkl0v9AnTSHTZxVZTtw/iQCJubm5kdXJiswjwMV+fZtQyPRZMScJREqAQqaPm0Kmzyr0nB0dHer+SfwxkQCFTH8MUMj0WYWaE0eQVq1aJTU1NSpQIhMJ0P1CfwxQyPRZhZoTF4eMHDlSKioqQq2HhZNAEglQyAywant7u+zcuZO7lAbYgk2wkwCFzBC7wYufkV4NMYYhzaD7hb4hKGT6rJiTBCIlwMV+fdwUMn1Wgefs7OyUrq4uKSgoCLxsFmg/AQqZvg0pZPqsAs+5ceNGeeihhxjxNXCyySiQQqZvRwqZPqtAcyJkNa5zg5gxukWgaBNTGN0v9E1JIdNnFWjOZcuWyfz58zmtDJQqC0srAQpZTJZH1NecnJyYame1JJAsAhSyZNmTvUkQAbpf6BuTQqbPKpCcx44dk/z8fBkyZEgg5bGQ5BKAkH3rW9/iZpCGiSlkGpCCyoLp5Jo1a9SNSAhhzUQCmQi0traqfy4rKyMoFwIUsgiHCHYp8SXGgRkhdIuropDpG49Cps/KV04cQcJOJb7GeBTJF8rUPIyIKEhchnA3OYXMnVEgOTAoP/nkE7pbBEKThZDAnQQoZBwRJEAC1hOgkEVgQnhoc3E/AtAJq2L//v2qRyUlJQnrWfDdoZAFz/SOEm/cuCE/+9nPVKwxBE5kIgFdAlzs1yUlQiHTZ5VVTrxVT58+LUuXLs3qeT6UXgIUMn3bU8j0WXnOefPmTVm8eLEsX75cxowZ4/l5PpBuAhQyfftTyPRZec6J+ykPHDgg8+bN8/wsHyABul/ojwEKmT4r5iQBEjCUAIXMUMOwWSRAAvoEKGT6rDzlxCL/uHHjJC8vz9NzzEwCDoG2tjY5e/YsrwjUGBIUMg1IXrNgkX/hwoXyi1/8gjHHvMJj/h4CR44ckVOnTkl1dTWpuBCgkIUwRPAmfffdd+XFF18MoXQWmRYCFDJ9S1PI9Flp59y0aZMUFRVJcXGx9jPMSAK9CVDI9McEhUyflXZOuF3gSNKgQYO0n2FGEuhN4Nq1a4KTITze5j42KGTujJiDBEjAcAIUsoANhK+xESNGBFwqiyMBEshEgEIW4Pj49NNPpa6uTrZu3RpgqSwqrQQ6OjoEbjw1NTVpRaDdbwqZNir3jDgbd+vWLSkvL3fPzBwk4EIArhe7d+/m7rfGSKGQaUDSzQJ3C1y6SydYXWLMl4nAmTNnpLm5WWprawnKhQCFLKAhgt0luF2sXr06oBJZTNoJdHV1ybp162Tbtm1pR+HafwqZKyJmIIF4COCEyOXLl7l5pIGfQqYBiVlIgATMJkAhC8g+8MKmJ39AMFkMCXgkQCHzCKyv7OfPn1f3VXItIwCYLOIOAogwzHHlPigoZO6MXHMcPHhQxeWnv48rKmbwSKCyslK2b98ugwcP9vhkurJTyAKwd0NDg4wfP16mT58eQGksggT+RwBfZHDr4Q1cmUcFhSyAXw2+yPLz82XUqFEBlMYiSOB/BCBizzzzjHpRMvVPgELG0UECBhPo7OxUX2OMpMIvMoOHKZtGAiQQBAF+kfmkeOHCBcFRErpe+ATJx0nABwEKmQ94eJRRPH0C5OOuBFatWqV2xLkGyzUy18GSbYZ9+/bJv/71L3VYnIkEwiDQ2Ngoo0ePlpKSkjCKT0SZ/CLzaUZea+8TIB93JXD8+HEVl4wBCfhF5jpYss2AmFFIcL9gIoEwCCCyyooVK+SXv/wldy/7AcwvsjBGHsskARKIlACFLFLcrIwESCAMAhQyn1Q5tfQJkI9rE8CdENi55LnLu5FRyLSHUd8ZudjvEyAf1ybw8ssvy5w5c2TSpEnaz6QlI4XMp6UpZD4B8nFtAm+++aZ89dVXUlFRof1MWjJSyHxamkLmEyAf1ybQ3t4ue/fu5a1KfRCjkGkPo74zco3MJ0ADH4e7g4mHtK9evSq//e1vpbq62kBq8TaJQhYvf9ZuGIEtW7aoaBNjx46VKVOmGNY6Nqc/AhQyjg0SuI0Arl97/PHHpampSdavXy/Dhw8nHwsIUMh8GonRL3wCNOzxjRs3yrRp0wRxwD7//HNZuHChYS0UwaJ/UVGR5OTkGNe2uBpEIfNJ/ty5cyqmOn4ATPYTwJfYAw88IIWFhbJy5UoVdWLMmDFGdQwbTBBZhMFm+g8BCpnPkYAF2EWLFsmOHTt8lsTHTSNg6qL/tWvXZOnSpbJs2TIZN26cadhiaQ+FLADsP/3pT2Xr1q0ybNiwAEpjESTgTgD3RPztb3/jV9l/UVHI3MeMa45Dhw7J5MmTeXTElZT5GfCFPWTIkDsaCtHIzc2VvLw8Yzpw8+ZNuX79+l1tNaaBETeEQhYxcFZnNoG+rl9ra2uT5uZmhtEx2HSxCRlu5/7www9VvPuurq47blPGGgAPxho8ahLctKefflp+85vf3DX+4F+Gr7Ly8nKjeo/dVRwmT7vPW2xChl0+LFQ+9NBDygHRuYAUu4Dw36mtrbUmRjnajME0depUowY5G+ONwKVLl9ROJYSsd+ru7lbjcsOGDUZ5/eMjADH9EXRxxIgR3jqcoNyxCVkmhgcOHJD3339fidnAgQONx33s2DHBOtny5cuNbysb2D8BvJB+//vf92tHrEuZOB7hV4a2w1UkrSlyIdOdNuKG5Xnz5smECROMtw19yYw3UaIbCIHFlyScd9PqjhGpkOEShbffflvr9D7yIoicDd7L8DeqrKyUnTt3GvnGTvSvOIbONTQ0SFlZWc9ySAxNuKvKvnZbTWhXVG2IVMgwALCFncS1JLpgRDVkw6vnyy+/VIv8bpEvcKPRyZMn1VcQkxkEIhWyJUuWyPPPP2/FV5YZ5mEroiSADagnn3zS1V8MUzlEa8U9k/AfNClhbfnb3/62jB8/3qRmhd6WSIVszZo16miFbkQB3OKNnSSE92UigbAJwIcMG0w6u39wH0KQQ9MW2PGbwWYZhNbEjYmwbBipkHntBCJLQPwQWsVxz/BaRlT54X5x4sQJKS0tjapK1hMgAWedc9euXQGWGk9RmzZtkoKCApkxY0Y8DYihVqOFDDz27dsnf/nLX7Q2CGLg11Mldi7r6upk8+bNcTaDdWdJAF/+9fX1xo8zne7B523t2rWpOokQqZDBeW/o0KGezodhPQJhcp566imtT34dQ4eRB+185plnpLGxkacSwgBsaJnYLXzllVfU2m/vM5pxNtnUyB1hMYlUyCBICCGMRdIkJkyDsS2Pz3qm9BBACKcBAwaoFxlTPAQiFTJ4wGOBFGte2SR89SCZuoiJ6SXW8kx6M2fDOY3P4MwibOfmetEXG3yVrVixQi38mxQhA22FyCLirWnBIYMeY5EKGYRo9erVMnv27KwOuWK97B//+IdyPmUigSAJYMcSO+rZ/uDhwP3Pf/5Tpk+fHmSzfJd19OhR9fGAXcwkB2KIVMhglY6ODrly5UpW0y8cb8L2+MyZM6W4uNi3kVkACYAA1m5xJA5LH6Z+7fuxFNZt0a8kfwBELmR+DIJn4ZKBtwveniY6/eFTfuLEiSrmO5MdBHAqAy/YqqqqQBps2uFyfAAgogfOYmYzdQ4ESsiFxCpk2PLWdY69nQMG3f3335/VsyHzlD179qhr7efPnx92VSw/IAIQMoQpD+Llg7GJM7dpc0gNyBRZFxObkGFhHMHqcCwkSXN3TFMw/YVPWRKnKVmPNAsexJcLvlj82g0OqZgtmOgcHVQfTTNnbEIGEHhzAWy2V8DjWZSBcD/ZfNmFZQzsyiKSqGk7WGH1NynlIjZ/S0uLOj8JF6FsI6/AIRXBDk0MDoqlD4h10mYMsQqZs3iPg7rZHr7FkRIcDcJirSliZtoaSVKEJop+QIQw1cR5RazDZvsywuFthKEyLT4YXEUgshCyIKbSUdhEp45YhQwNhP8O3hB+zlKaKGY68JnHXAL4wWNcOovjWArJ1jXDtF7iXDCWdGw4w6zLLnYh022oWz6c+n/44YeNWW/DD+GTTz7Jys3Era/892gJYFMK/o8PPvig56Nypl7bdurUKfne976XmF1MY4QMP/w//elPgTgUmhAtE4MfN0HjELkpU95of/7Jqg1jCrHxMeWEB/+kSZO0OogXLP6w9MEUHgFjhAzrZTA2nF39RpDFbii207EOEOeOqBMSJmkLq+ENR/NLRhyye+65R3sjAF9kWPSHA7eJYXUwZcZL1/bzwcYIGYYwXBfgf/Pss89qv/H6GvoQxaamJrUJgLdnXI6zCJ2McMi4RoxfZeaLlNcW6p79hVggrA6ukvOzFuy1fTr5k7JeZpSQAbzblVw6xnHy4JwZyoN7RlwJaxHf/e53eZA8LgOEWC9cNRAup6KiwrUW3Faen5+vZgqmJUyXMf3Fl6Otnv/GCVmYRsbWuk4Y4zDbwLKTQ8BZDkEodtvP/sKBG+t+tt5YbrSQYe6OFMS0zIm8MXr0aM87T0H89CiiQVA0rwy4D2E5BOu7ubm5rg3E8gnWbU37MrPd99FoIYNjIu7BxA3e2XpZ3z6yMA3AzhOu88KmQlRHSJwLVBF9ANMLpmQRwFosHF91xKm5uVkFPkDYIFOTjaJmtJDB0Dg2gnhKELOgHBLxpc8lVjkAAAZISURBVHfx4sVINwHg6Y21CKxD+D3LZ+oPgO1yJ4CXKTzrsW5romc9RBa7/rbFLzNeyDA0sFCKC1GDCrPSe7jBcNhNwvZ4EF9+/Q1nHCaGU+WsWbPcRzxzWEcA00a8pNzWYREhA2tS2MU0MZowzmPiZY8jWrYkK4QsbJgYgO+++6788Y9/VFO/sOI2YZ0Mfki2++yEbQ9by29tbVXTRowftwQxi8styK1tzgXEzuF5t/wm/Lt1QuaIDqJLBL1VjF2o9vb2nk9+eHOjvqCmtCYYnG0IjwCmjUuWLFFfMqYdFvfaa7x04Tpkyy6mdUIGcUHoXuwW4c0XpsicOXNGTQGwiItznDBqUA6NWC/Dln2cJw+8Dm7mdyeAtdDDhw9rH0nChTyIsKGzUeBee3pzWCdkjqkwYOC9D8/5MMUM9UHQPvroI/nOd77TcxbU772BOL4Er2q0n2KWrB8gdjF1lw8QT+/y5ctG72LiYhWEbzd5k8paIcPQzzZUdhA/GyyI4tO7qKhIORJms97hiBl8kEweJEHwYhl9E8ByBl5mOB2AsWRawnoZAh9gqozlHFOT1UJ2O1TsbJ49e1YQpDGqnSB8UX388ceC6QF8xJwgfF6+1iCITzzxhArCx5QsArrjAC9EXA6C3XMTX2g4M4yX7YIFC4z1g0yMkAE2zr79+c9/Vrd9+42g4ecntWjRIuXljc9xTDEoUn5o2vksHK+vX7+u/RUT5+xChzDE9o033lABGU1MiREyBy7cG7B2huvrw/QJy2RMTBewToK1hc8//7znZnVsVOCkAi5yhUPugAEDVMA+puQRwGYU/Aa3bt2amM6ZEOevP5iJE7LeHQX8f//734Gc1/Q7ItEWHI/CzifOfOIMqZvzpN86+Xx8BLD2haNIXr7IcYQJjtkcF97slnghw/pVQ0ODuhUHf1Gtn3kzA3MnkQB2JLG0oBtNFgzgVIu1VxzJMzFhCQfhsUwLEpl4IcNggFMrBgimehgg2ewwmjio2KbkEXC86qdPn25kaCC0D8FKcXGJSV+NqRAyZ7jj+AjgOycCbDzln7yfLnvUmwDW17CbbWqcf4jY3LlzjdrBTJWQ3T5gMFgQgvpHP/qRPProo0Zue/MnbjcBzASwDhr0Ubo4qWAjC7vy2MQw6TRCaoUMgwFbyrt371a7iD/5yU88rWXEOZhYtx0E8IN/6aWXYts9D4NS7/PIYdSRTZmpFjIHGAQNjojZ3iqdDXg+k2wCuCti+/btvv2u4MKBTaoJEyYkG5jP3lHIegHEuhnWALDThAVX7nL6HGEpfRzO2RhLfi++wUu2vr4+9sX1OIKRehk6FLI+aOFtCs9sOLU+8sgj6vgREwl4IQAhQ3STIJyyMRYRtABRW+M4woT1ZByfgsuFaW4Xjk0oZBlGJ95CEDUnkgH+G06tXhwcvQx+5iWB/gjs27dPzRCijpSC+Hzww8RNUaaKGJhRyDz8dnAwHefNkBCyetq0aT1b0BC4K1eu9JQ2dOjQnmlppn/zUD2zGkgAAQjhwIqjcQjHjjO+tl8Ndztm3Hd5//33G+Vq0dcwoJBl8eOAPxpilN1uYBw9euedd3pKQ0QLLNIiZfo3OOriz0k48I4/pGz/Ldu2ZHoOAxp/TsKP1fnBZvo3nKzAn5Nw4YZz6UYY/4Y1pdOnT/fUhxeOc3NVtv/mtBNe7TgIfnvfMe1D2GoECUBd+Atz+gfhxDEm+ENihoCpa1+3gfU+mof//uyzz9QZX6T77ruvZ6aBWQe+upAH5WN92KZ4/fwiy0LEbHgk26/DTM/BJwp/TsJ5USdabqZ/w48Ef05CEEwnEGYY/5atWGV6zmkn/Kbuvfde1e+gIgV7HU8IDYS7JW7duqWmmWiPE8cMfcBGFRI2qbAkAi98JPQB8e/w8kXCWV/nEhzY/YsvvlB+YRDIMIXYa3918/OLTJcU85EACRhLgEJmrGnYMBIgAV0CFDJdUsxHAiRgLAEKmbGmYcNIgAR0CVDIdEkxHwmQgLEEKGTGmoYNIwES0CVAIdMlxXwkQALGEqCQGWsaNowESECXAIVMlxTzkQAJGEuAQmasadgwEiABXQIUMl1SzEcCJGAsAQqZsaZhw0iABHQJUMh0STEfCZCAsQQoZMaahg0jARLQJfD/VYWZdoI9nYUAAAAASUVORK5CYII=;" vertex="1" parent="CqSl_4f9jDyDH8PWOEyv-63">
          <mxGeometry y="13" width="306" height="302" as="geometry" />
        </mxCell>
        <mxCell id="CqSl_4f9jDyDH8PWOEyv-3" value="Klasse " style="text;strokeColor=none;fillColor=none;html=1;fontSize=24;fontStyle=1;verticalAlign=middle;align=center;" vertex="1" parent="CqSl_4f9jDyDH8PWOEyv-63">
          <mxGeometry x="103" width="100" height="40" as="geometry" />
        </mxCell>
        <mxCell id="CqSl_4f9jDyDH8PWOEyv-10" value="Hund" style="text;html=1;align=center;verticalAlign=middle;whiteSpace=wrap;rounded=0;" vertex="1" parent="CqSl_4f9jDyDH8PWOEyv-63">
          <mxGeometry x="130" y="193" width="60" height="30" as="geometry" />
        </mxCell>
        <mxCell id="CqSl_4f9jDyDH8PWOEyv-61" value="(Objektvorlage)" style="text;html=1;align=center;verticalAlign=middle;whiteSpace=wrap;rounded=0;" vertex="1" parent="CqSl_4f9jDyDH8PWOEyv-63">
          <mxGeometry x="123" y="30" width="60" height="30" as="geometry" />
        </mxCell>
        <mxCell id="CqSl_4f9jDyDH8PWOEyv-34" value="" style="group" vertex="1" connectable="0" parent="1">
          <mxGeometry x="490" y="110" width="301" height="324" as="geometry" />
        </mxCell>
        <mxCell id="CqSl_4f9jDyDH8PWOEyv-2" value="" style="shape=image;verticalLabelPosition=bottom;labelBackgroundColor=default;verticalAlign=top;aspect=fixed;imageAspect=0;image=data:image/png,iVBORw0KGgoAAAANSUhEUgAAAS0AAAEtCAYAAABd4zbuAAAgAElEQVR4Xu2di3MdxZXGe+ZevyRh2Rby25hXgBQmCQtZUoElu7CETRZSUJut5F9M7WYTAuEZYMMCBQssEGCBBQLxQ0IWth62ZFu+M7Pn9LUcWZZ0T890z3RPf13lMpRPv37d+jTTc/qcpKCiUEAABEAgEAIJRCuQlcIwQQAENAGIFjYCCIBAUAQgWkEtFwYLAiAA0cIeAAEQCIoARCuo5cJgQQAEIFrYAyAAAkERgGgFtVwYLAiAAEQLewAEQCAoAhCtoJYLgwUBEIBoYQ+AAAgERQCiFdRyYbAgAAIQLewBEACBoAhAtIJaLgwWBEAAooU9AAKrCWSLKj/zmSrOTakiv6CSzpBKRm5U6cgNYOUBAYiWB4uAITRNgKMzJUoVmcpnP1D5/Kf0/1dHbEpHj6h0x5GmBxt9/xCt6LcAABS9sypJuiqbelkVF+c2BNLZ84BKtu4GtAYJQLQahI+u/SCQz36oisWjJFjzAweUbN6lOvt+PNAOBu4IQLTcsUXLIRCg86ve8SfXfB1cb/idvQ+qZMt4CLNr5RghWq1cVkxKSoDPr/KZd6Xm2i7dfqtKd95pVAfG9ghAtOyxREsBEsgmn1PF0ozRyJNN21Vn/0+N6sDYHgGIlj2WaCkwAnzonk08U2rU3YOPKdXZWqouKlUjANGqxg+1AyaQz76v8rmPS82gM36fSoYOmtfNl8j366Kul6Sb6F1zs3kbkdeAaEW+AWKefu/475Sig/gyJR29nXy27hBX5VfQfO4j+kp5guos+4Al2n0i3fEdOtgfE7cVuyFEK/YdEOn8i/NT2i+rbEm27Ved3feLqrNYsVvFWg6r/UeurtJfJDfvFLUXuxFEK/YdEOn8s2/eUMXCV+Vnn25R3UOPD6yfn35HXwkaVFiwOvseHmSGf2eNR7JW7IPoCNB1nd6x39CDT6/S1LsHf0aH8UPrtqGvBNFTlrR0DjxCD10jUvNo7SBa0S59vBPnJyx+0qpaNjqML85NquzkH426YN8v9gFD2ZgARAs7JDoC2clXKILDROV5r3eBuugtKPb/UvSl0KSk19ys0l13m1SJ0haiFeWyRzxpCjXTO/ZbAnB1FAdTKuzywE9bVxR69cy+/oOxwyq3wV8S+UI2Cp60sAdA4DKB/OwXKj/1lh0idJ6lz7VWlPz023Tw/nmp9uFpL8OGJy0ZJ1i1hIAOP0PuDraK/oJIXxK55Ge/JEF8s3zTa4hg+cbaWxOi1d61xcxWE7D4arjcNPtqsc8Wh7XJJp+v/kXy8C+xbgMIQLSwRaIhUPlJaA1S6ei36YvfbXSO9aIoHtcg2N3DvyATiqKKsi4BiBY2RzQEsulX6RrNcavz1ddv6LWuWDxmpd3OgUfJV2vYSlttbQSi1daVxbyuJECOpH2H0swuGbqCU9VJdeWAIFqDlweiNZgRLFpAgJ+w+EnL9wLRGrxCEK3BjGDRAgKV7xrWxIDjz3McepT1CUC0sDsiIFCo3tFfW32NcwUN2X4Gk4VoDWYEi8AJVA1DU+f0IVqDaUO0BjOCReAE2AOePeFDKJ3dPyK/r30hDLWxMUK0GkOPjusiUCVCaV1jXO4nHbtHpSM31N1tUP1BtIJaLgzWlEBxYVo7foZSIFqDVwqiNZgRLAImUCV5RRPTTnd8V7GXPcr6BCBa2B2tJpCdeIp8P88GM8dk06hKx+5GBusNVgyiFcx2xkBNCXAGHB2ML7RCXvbpjiOXopjiHuLq5YNohbahMV4xgX4WnA/E9r4ZcrKL5JpbVDp8Hd2h7vg2vMbGA9FqDD06dk2gTMp712Mq1T5lstZnXSPXU3U8eUG0Su0iVPKdAJ9j8XlWm4o+7xr/oeK/Yy4QrZhXv8Vzz+c/UfnMe+2bISd2Hb83agdUiFb7tjVmRAR0UD7y0WpnSShrz12Ks/fEWCBaMa562+ecLSrtBd/y0rmWXhX5kD6yAtGKbMFjmC5nw+GsOO0viersfSA6ny6IVvt3dnQztJ1xx2uA6WalY3B1R7weps3BQbRs0kRbzRNwkHGn+UltPALOBsRZgWIpEK1YVjqSeRYLXymOUhpb6ex9iF4TKclGBAWiFcEixzRFFxl3QuDH4Ww4QkQMBaIVwyrHMkdXGXdC4Ef+W91Dj5HDPGUHanmBaLV8gWOaXigZd1ytSefaH5ALxPWumvemXYiWN0uBgVQlEErGnarzXK9+LAfyEC1XOwjt1kuAkrD2k7H26u3Xq94S1T34qM543eYC0Wrz6kY0t9hfDZeXOt1+q0p33tnqlYdotXp545lc7K+Gl1eanE27Bx5Riv5ua4FotXVlo5pXOMlY61iWtj9tQbTq2EXowymBkJKxOgWxovE250+EaNW1i9CPMwIhJWN1BuGqhhNyfzikkq37VDq0n14Xt9TXteOeIFqOAaN51wTo1fDYb5WiO4co6xEgAaOs1enIjSoZOkBGYYdshmhhpwdNAK+GhsvH8ebpyk8yclOwkSEgWoZrDnO/CODVsPx6JFt30ysk3Vmk18iQrv9AtMqvOWp6QKB3nF4Ns/MejCTgIXCexeHD9PRFr48BRIqAaAW812IfOseA51jwKPYIcKafhGLPs4j56usF0bK33mipZgL5zLsqn/+05l4j6Y6Sw/KhfTpyM32B3O3VpCFaXi0HBmNCQCevoCQWKG4JJJu261fHlCNI0EF+0wWi1fQKoP9SBPBqWApbxUrkOjF0sO86QS4UTRWIVlPk0W8lAvhqWAlf9crdYf3qmF5zY+2OqxCt6suHFmonAIfS2pGv16E++zpE4vWt2r48QrS8WX0MREoADqVSUvXa8atjZ/w+551CtJwjRge2CSAMjW2idtpLtoxT8tgH7TS2QSsQLeeI0YFVAohQahWn1cY4ucZ1P7fa5FqNQbScI0YHNgkgQqlNmvbb6h7+pf1GV7UI0XKOGB3YJJBNv6aKxWM2m0RbFglAtCzCRFMtIBBzXsMglo8Saxz+hfOR4knLOWJ0YItArCnvbfFz3Q7fW+zs/4nrbhREyzlidGCLQHbyFVWcm7DVHNqxTIATxXLCWNcFouWaMNq3Q4Aik+oIpaqw0x5asUuA7iR29jyg+J6i6wLRck0Y7VshkJ/9QvHVHRQPCbBg7f3H2iKhQrQ83AMY0tUEsqmXVHH+JND4RoB8szp76Qlr867aRgbRqg01OipNgMLP6DA0KN4RSHfdpe8d1lkgWnXSRl+lCORzH6t89v1SdVHJHQEODsjnWHUXiFbdxNGfMYFs4hlVXJwzrocKDglQdAd2b0i6Iw47WbtpiFbtyNGhCYFiaUZlk8+ZVIFtDQTSHXeodPT2Gnq6uguIViPY0amUQD7zHsWB/0RqDrsaCLBbQ9+JtJmkrxCtGhYZXZQlQMH+jj+JOPBl8Tmqp/2xGkx2AdFytLBotjoBBPurztB2C3V5vW80boiW7VVFe9YIZN+8roqFo9baQ0MVCXSGVHf/w7XHhF89aohWxXVEdUcE8iV6NXyCbu1kjjpAs2YEkr4TKUUnbbpAtJpeAfS/JoH8zGcqP/0O6HhCIB09otIdR7wYDUTLi2XAIFYTYDcHdndAaZ5AsnUPOZH+PQ2kma+FeD1sfg9gBAMIFEunyTfreXDygIB2b2Cvdw8ySy/jwJOWBxsDQ7iSAL8W8ushSrMEfBQsJgLRanZfoPfVBDjbDh/A00E8SnMEdDqw3ZTDMN3S3CDW6Rmi5d2SxD0gxM1qfv21YO35ET3SdJsfzBojgGh5uSzxDorPsvhMC6UJAgndJ7yN/tBXQroQ7WuBaPm6MhGOCwfwzS16smVMpbvupmB+O5sbhLBniJYQFMzcE8hPv00H8J+77wg9XCbAIsXRGpKhg8FQgWgFs1QtHyg84Gtd4GTbPh1xNNm2v9Z+bXQG0bJBEW1UJpDPf6rymXcrt4MGNiBAB+vpyA0qYbGqIWuOq7WAaLkii3aNCGQnnlJF76xRHRjLCLBAJSM3acFS6WZZJY+tIFoeL04sQysWj6ts+tVYplvPPPmpavgwidX1XlxytjlpiJZNmmirFIFs6mVKDzZVqi4qXUmA7wnqV8ChQ167LVRZN4hWFXqoW5kAYsBXRqifpPjrXzpMQkUxr9peIFptX2HP55efelPlZ7/0fJT+DY9dFbRQ8TlVBEK1cgUgWv7tx3hGlJ1XvRMUAx6B/i6veXrNzXRYvpX+v9Cx8Yui/zcfoCccaWHzmI7PnnSH49knq2YK0Yp26ZufOLs4sKsDSp9AP8vNT4FjAAGIFrZIMwTwlHUV96YyNjezAcr3CtEqzw41KxDAU9bV8CBasg0F0ZJxgpVNAnjKWpMmREu2ySBaMk6wskgAF6PXhslfAzvjFHgPZUMCEC1skFoJFBfnVDbxLPVJX8VQriDA7gvp2D2ggoN47AGfCMD7ff3VgGjJdiqetGScYGWBQLF4jO4YvmahpXY2AdGSrStES8YJVlUJ5BdUb+K5vqMkypoEIFqyjQHRknGCVUUC/ITFT1ooeD2sugcgWlUJov5AAsXCVyr75o2BdrEb4ElLtgMgWjJOsCpJQEdx+PpF+ljYK9lCPNUgWrK1hmjJOMGqDAE6v+pxentyJkUZTACiNZgRW0C0ZJxgZUqAhCqbekkVF+dNa0ZrD9GSLT1ES8YJVgYEit6Cyk/+EYJlwIxNIVoyYBAtGSdYCQnoMywSLLwSCoGtMOPMzukOyu6MsiEBiBY2iDUCOg3Y7J8Q1K8kUYiWDBxES8YJVhsQ4NRf+el3VHFuEpwqEIBoyeBBtGScYLUWAfo6mM/9L6Wy/4L+FRegq24SiJaMIERLxglWywTI36o49zUlo/jzpScriJWtzQHRkpGEaMk4xWtFSSeKC6coL+FJ+pv+nJ/GU5Wj3QDRkoGFaMk4td+KM78szfVT09Of4uKZv/6NV79a1h+iJcMM0ZJxapUVCxMfmvPTU1+gyAEUabwaX2OIlmwJIFoyTsFbFRemVbFwtC9W/DSF4h0BiJZsSSBaMk7BWrFI5XMf6nMpFL8JQLRk6wPRknEKzypfUjpNF1LOB7N2EC3ZUkG0ZJyCstLOnidfwd2/oFaN7h7iGo9oxSBaIkzhGPHZVXbyVaUovDFKWAQgWrL1gmjJOAVhxa+C+an/prHC4TOIBVs1SIiWbNUgWjJO3lvlsx/QgftH3o8TA1yfQLrzTpVuvxWIBhCAaIW+RehaTUZPV+zOgBI2AU7UyjG1UDYmANEKeYdwdNDp/4I7Q8hruGLsEC3ZQkK0ZJz8s2LB+voPcBT1b2VKjwiiJUMH0ZJx8ssK8df9Wg9Lo4FoyUBCtGSc/LGCYPmzFpZHAtGSAYVoyTj5YcWH7lOUMIJ8sVDaRwCiJVtTiJaMU/NWEKzm18DxCCBaMsAQLRmnZq0obEw29Z94wmp2FZz3DtGSIYZoyTg1aFWQW8Prqlg81uAY0HUdBCBaMsoQLRmnxqzyU28iUkNj9OvtGKIl4w3RknFqxCo/85lOzYUSBwGIlmydIVoyTrVb6WgNX79E/eLyc+3wG+oQoiUDD9GScarXinyxepPPIrV8vdQb7w2iJVsCiJaMU41WdPBOT1jwxaoRuSddQbRkCwHRknGqzYrPsPgsCyU+AhAt2ZpDtGScarHqB/F7s5a+0Il/BCBasjWBaMk4ObcqlmbotfBFOnfvOe8LHfhJAKIlWxeIloyTWyv2eJ98Doko3FL2vnWIlmyJIFoyTk6t8pn3VD7/idM+0Lj/BCBasjWCaMk4ObPiJKoczA/+WM4QB9MwREu2VBAtGSc3VngtdMM10FYhWrKFg2jJODmxwmuhE6zBNgrRki0dREvGyboVXgutIw2+QYiWbAkhWjJOdq3wWmiXZ0tag2jJFhKiJeNk1QqvhVZxtqYxiJZsKSFaMk7WrIql0+ST9by19tBQewhAtGRrCdGScbJmxV7vuAxtDWerGoJoyZYToiXjZMWKU9dn37xupS000j4CEC3ZmkK0ZJyqW9Hhe2/iaaV6C9XbQgutJADRki0rREvGqbJVPveRymc/qNwOGmgvAYiWbG0hWjJO1ayyRdU7QU9ZiOBQjWPLa0O0ZAsM0ZJxqmSVffOGKha+qtQGKrefAERLtsYQLRmn0lZ9z/cXStdHxXgIpGPfV+nITfFMuORMIVolwUmrsWCxcKGAwCAC6egRle44Msgs+n+HaDncAsXiccoO/arDHtB0mwhAtGSrCdGScSplBUfSUtiirQTRki09REvGydiqOH9SZVOcbBUFBGQEIFoyThAtGSdjKxYsFi4UEJASgGjJSEG0ZJyMrHRmHUpUgQICJgQgWjJaEC0ZJyMrPnznQ3gUEDAhANGS0YJoyTiJrYqLcyqbeEZsD0MQWCYA0ZLtBYiWjJPYijNEc6ZoFBAwJQDRkhGDaMk4iayK3lmVnfg92RYiexiBwEoCEC3ZfoBoyTiJrPLTb6v8zOciWxiBwGoCEC3ZnoBoyTgNtuJ4WcefUCpfGmwLCxBYg0B6zc0q3XU32AwgANGytEUQldQSyIibSUduUBzpAWVjAhAtSzskm3qZnEmnLLWGZmIkANGSrTpES8ZpQ6uCQihnJ5600BKaiJkAREu2+hAtGacNrfLZD1U+96GFltBEzAQgWrLVh2jJOG1o1Tv+O6UopDIKCFQhANGS0YNoyTita8XnWHyehQICVQlAtGQEIVoyTutacR5D/nKIAgJVCSRbd6vOngeqNtP6+hCtKktMPlnaN4t8tFBAoCoBiJaMIERLxmlNK75jyHcNUUDABgGIlowiREvGaU0rvBpWgIeqVxGAaMk2BURLxmkNq0L1jv4aCVhL80PF1QSSLWOqs/chgBlAAKJVcosgBnxJcKi2PoHusOoeeBSEIFpu9kA++z45lH7spnG0GicBiJZo3fGkJcJ0tRGSsJYEh2p40qq4ByBaZQByGJqj/041EeyvDD7UWY9AorqHfwE8eD20vwdwnmWfKVrsE+ge/iVQQLTs74F87iOVz35gv2G0GD2B7sGfKdUZip7DRgDwelhie2QnX1HFuYkSNVEFBDYm0Nn/U5Vs2g5MGxCAaJXYHtnE06q4OF+iJqqAwADRoruH7GSKsj4BiFaJ3dH7y6+oFg7hS6BDlQEEOEY8x4pHgWjZ2wMUN0vHz0IBAQcEkqFDqjN+r4OW29MknrQM1xLxswyBwdyMQNJV3ev+heokZvUisoZoGS42IjsYAoO5MQGOqYVzLbweGm+c9SpwMlZOyooCAq4IpKPfVumO77pqPvh28aRluIRIYmEIDObGBJLuiOoceMS4XiwVIFqGK53PvKvy+U8Na8EcBMwIdPY9rJLNO80qRWIN0TJcaI5UyudaKCDgkkA6eju9It7hsotg24ZoGS4dRMsQGMxLEeCnLH7aQrmaAETLcFfgTMsQGMxLE8A9xLXRQbQMtxREyxAYzEsTSMe+r9KRm0rXb2tFiJbhykK0DIHBvDQBJG/Fk1bpzbOyIpxLrWBEIwICyaZR1dn/E4FlXCZ40jJcb4iWITDfzdPNKulso6gdc16OtHvwMYqvtdXLsTU1KIiWIXmIliEwz807ex9UKu+p7OQfvRxpuusuivrwLS/H1tSgIFqG5BFq2RCY5+bL9/yyqZcVX4b3rXBAQA4MiPJXAhAtw91QXJhW2dcvGtaCua8EOtf+QCXD1+ugjtnEMzRM/+KkdcbvU8nQQV8R1j4uiJYpcsTTMiXmtX06dg+5Fdygx8hx/zn+v2+lfxfxn2lYCFfDawPRKrFDEbm0BDRPq6wULUWp4fhpq+id9W60V4zTu9HVOyCIVgne2YmnvNzYJaYSfZXVsau8PbOkDD1dftpKOtGvGUSrxBbw9dC2xFSir9LZ92OKprDrCg756XdUfuYz79hwjC2OtRV7gWiV2AH5qbco0sMXJWqiim8E1vSDKnqqd+Jppej80qvCoZgP0JfEyPMi1iZaxeJxldMf1TtDRwfnVcKPud1hlW6/jULL7vFqbwwaDJK1DiIUyL/THuxe969rDpb3azb9qncT4a+I/DUx5lKLaA0KnLf82TmUhSgWvlLZN2+EMlyMcx0Cg3ygsunXVLF4zDt+nd33q2Tbfu/GVdeAnIsWR/lk0dqw0FUKfciYbqlr3pX6ga9WJXzeVOYffBaAdQu9EfQoMa/Kl7wZsx4IvaF02eE00kN5t6JFi92jL22SRQ8qDEd+QfWO/cavjYzRGBPg6zF8TWaj4uu1rZiTXzgVLZOzHz7bSnd+z3jjNVVBixaJF0q4BNKdd9KZ6q0DJ8D3EotzkwPt6jVI6HrPPymOBBFbcSpa2dRLdJ/rpIhpsmVc6curgRSTuQUypeiGKb0eU/QW+ld86KuiTyW0nxlb7JyKVu/Ek/S1cEE4VvrNQedafGUhhMK5DzkHIkq4BEwy3ojOZhtAEdSxiiU+bkXr6L/Rb6dMPNSQPuey8yE7IaKES6B73c/pMLsrnEBBF+X/oIoLp4T2NZkF9hHLBhW3ovWXX9EYzW7Nh/I5F18QbWy/BtugL9XdQ48bDUBHgph8zugXsVEHJY2ToUPku3VvydrhVXMrWkavh5fg8WZir1/f3R/4y+ix/whvxTFiTaDseZCvOQJC83Wssg2dihbHneInEtMSymui2ZmdKQXYuyTAWW74PMi80Gvi5POqWJoxr+qyBr8m0tfEGK74OBWtKoeX6a67KczszS6XuXLbSNxaGWFjDbB7DbvZlCl8rsXnW6ZHH2X6Mqkz0FnWpDGPbZ2KlqriUUwHpPoGPoWb9bX46njoKy+fxtXZ8w+V7rzmM++pfP4Tn6akxxLCL/uq0NyKFo2uytNWPzX4j/kEouo8ndTX/jt8bocSGIGkfwhPr1SlC30V11d8xC49pXsyq0hXe/q/7NvrdOpctPgROpt4tnSKJt8TVuJcy+xnygdrjirCT1pVi68BA3W+RP5l39K7iTWIFslWxTMAn4Of4Vyr6o9+/fWl13ckI/M2YCCdB/OrYhtLLaLF4Kp9KiZv+d1/52U4Dg5dwiFMUMIhsDrEcqWRs+sLvUl4FzCQJiW9plRp/g1Urk209Gvi5Av0qfh0uWnywfyeH2n/Gr9KoXrHn6BNe96vYWE06xLgr9IJRXjgzNKVzrUu9VCcm6Bkr6/4R5zO7PRVJQpl06ZSo2iRbGmP4ufLXzz1VLjy2fcp9dTHbdoXkcwloS+Iu3UG56p5BX09JuD49519D9F6+vkxq8xGq1W09Gvi2S8VL3Dp4qFw4Sti6dX0piJ/qU6uuYVyIF5f7gecY6xxXHkPwxVx+B0+x2tLqV20GByHKuaQxaULC9fY31Jm4OtKN2G7op8xl2zPsv3tcZSRZPT2UuLl8/lmm863GhEtjkuk3SAqJsXsR578m3K/GS3//BXnpxSnFkNpBwF2G+C9ZZp0xde48nx215bzrWZEi/Y1393SVyEMQtes9eOg39l3U3YSD9IqITBgOwRr5SyS4evpqZ5cB6QhbKrcAnGMr39J/AEvfslXmWpjosWDtvY4TREhOuM/NP6tWAXcWnV9dTa0Pc/Y2jP9xVj53NYh4DbElm9UtHht+P4W3+OqXhLKvktnETuOVG+qQgt42qoAz+eqna2qy17mwid6doFgVwgfS2c3uQ5t2+fj0ERjaly0tHBRijG+o2ij8GKwJ3BTvil97/8XbEwFbXhGQN+F5TwGkldFyk6tnU59Sz/GTDlm3f6HxQLs2TIoL0RLO55Ov24vMSZtKv3UNcqhR+r3T/H2MNa33RfgeExivfkckjtk/y1PRIsPuOiL4hSlaioRNHC9va+/ALFrxJaxWn88+KtoduL3PKla+0Vn9RAwCf/i83GBJO9jPUTNevFHtHjc9CVR+3BZTkXOvx35yYsf7+sqvl6krWv+re7HIEqor+nHltcnxDDNfomWJlnoLDcu0nPVKl4eX6RttaDUNLm2vCby+Ryf09X5C73qEnkoWv0p5bMf0H2+j6rOb436dN9s6ADdN7tF3ztzWby9SOty0hG1bZI5ij/OeJd+7NJa8S0AHX+rSlDEGtfdW9HSwkVfFPvuEG7OhvjMKxm5UaXDh+lLylYn2PNTb9F9yy+ctI1GmyWgf9gpwbDkY4+v6ceWCfJXd3aFCKF4LVr6ZZEO5vmcy21YW3r6YlcJusuob/tLPmmLV5e+jGqfnUlxDRiGQyDddZeOEiEp9nwSJb2Z26SjRxr3c5SM2nvR0pOg86GM0tAXC0clc6pmQ4Klz75YwLQDngWXCQdfRqtNErWtEdAZnh8Rvlp5mqX6MgwOtnm/946nYYjWJajF4nESr/+pL0okOeGlw4dIxOjPlmurxdyGcFnTCd8aMgkH7vtrYgiOp0GJ1vJTVz77JydfFzf8YdBPYPtVum1//zdRmQzYJFy9iWccv+r69iMdwXj4is+BR8W/1Hx/TfTd8TQ80Vp+6qLrMuwaUTp8c6WfJY54Oa5j1vOrJB/ISot+Wpx+VWoOu0AIcLZqzlotK76/JtLvZI/Pt4IVreXNoW/UU7jjJmO068BxLF6Umkq7UayXuomcZ/P5/+uPF6VVBEzTkvnudMpnuTp/Yo0O2dINEbxoXX5lnP+Y/Lo4468b9wgpUBYs7UqxmZJlshtFkVNs/DNKUXz8IjtXOX6YeBwwrJkAJ4B9zOjYwOe7iQzP12TJ7RCt5VdGuvOnXxnhXlDzDyy6YwImzqbLxHwP052O3UOvvTd4tcCtEq1lsixafFjP0VFRQKAuAiZfES+PyecQNvy0pR1oyaXDo9JK0bosXnTxOp95v3Iseo/WC0PxmEDZw2trEXwdsdGx5T0622q1aPXXkC5gn/1K32X0MQuwo32GZhsgUFa0eKiVM1Q5nG//QH6Xwx7Mmo5AtC4B4S93Zz6nr3eUVBXZoM12CaxFBCql6fLUh8/kfqUIkgWjeETr8jtjj8TrC4iXhc2DJlYQIOfj7qHHxQ6maxdNFIIAAAKISURBVLHrh+qmDFVNfwFfMbjO+L36RohPJT7Ruixe9ORFdxkLCn9TNf+iTwuKsTRDgBMHd679YeXOffKW1+nTrv1B5TnZbiBe0bpMsqBIqSd07C58bbS9veJpz+YTiQ85BnzOkQjRWvFzxVeCirN/1gf3HLMeBQREBCitWPcg3T20ERGEO+TL9ZPPk1PyvKh720Y6Kis/YVkN0WRvlBCtNQ8XLr06LnzZjzZZMQu2veVCS74R0GGMdn7P6P6pZA46OcokpaLLL0jMLdlw7tDbKKbWd+wJsKWRrWwGojUIKgkWCxdnj1bZAunXeR3fS/9tUjLafHh6MyHmny1F9kg20T1T/vxPf1KO9uEo4q1+4OIAmNOvuf/aTTHBkm17Vbr9Nq9cG9bbABAt/340Bo+IfvsWuaXXV04mml8c3KfEgsXcVlsb9cdPvqa/NAaNn8VnxUX3JKHgj8vZpLvD9E9X/vug5mz9O1+s1sEv9T1WWvOlWR3ZpKC/r/jKSGPkknCc93RTv3sav57Hpf/mGPBJZ1u/re6Qfpq6Yp62Bu24HYiWY8BoHgRAwC4BiJZdnmgNBEDAMQGIlmPAaB4EQMAuAYiWXZ5oDQRAwDEBiJZjwGgeBEDALgGIll2eaA0EQMAxAYiWY8BoHgRAwC4BiJZdnmgNBEDAMQGIlmPAaB4EQMAuAYiWXZ5oDQRAwDEBiJZjwGgeBEDALgGIll2eaA0EQMAxAYiWY8BoHgRAwC4BiJZdnmgNBEDAMQGIlmPAaB4EQMAuAYiWXZ5oDQRAwDEBiJZjwGgeBEDALgGIll2eaA0EQMAxAYiWY8BoHgRAwC4BiJZdnmgNBEDAMQGIlmPAaB4EQMAugf8HDwO3TIrzcsoAAAAASUVORK5CYII=;" vertex="1" parent="CqSl_4f9jDyDH8PWOEyv-34">
          <mxGeometry y="23" width="301" height="301" as="geometry" />
        </mxCell>
        <mxCell id="CqSl_4f9jDyDH8PWOEyv-5" value="Objekt 1" style="text;strokeColor=none;fillColor=none;html=1;fontSize=24;fontStyle=1;verticalAlign=middle;align=center;" vertex="1" parent="CqSl_4f9jDyDH8PWOEyv-34">
          <mxGeometry x="100.5" width="100" height="40" as="geometry" />
        </mxCell>
        <mxCell id="CqSl_4f9jDyDH8PWOEyv-11" value="Bobby" style="text;html=1;align=center;verticalAlign=middle;whiteSpace=wrap;rounded=0;" vertex="1" parent="CqSl_4f9jDyDH8PWOEyv-34">
          <mxGeometry x="120.5" y="190" width="60" height="30" as="geometry" />
        </mxCell>
        <mxCell id="CqSl_4f9jDyDH8PWOEyv-35" value="" style="group" vertex="1" connectable="0" parent="1">
          <mxGeometry x="490" y="480" width="301" height="322" as="geometry" />
        </mxCell>
        <mxCell id="CqSl_4f9jDyDH8PWOEyv-16" value="" style="shape=image;verticalLabelPosition=bottom;labelBackgroundColor=default;verticalAlign=top;aspect=fixed;imageAspect=0;image=data:image/png,iVBORw0KGgoAAAANSUhEUgAAAS0AAAEtCAYAAABd4zbuAAAgAElEQVR4Xu2di3MdxZXGe+ZevyRh2Rby25hXgBQmCQtZUoElu7CETRZSUJut5F9M7WYTAuEZYMMCBQssEGCBBQLxQ0IWth62ZFu+M7Pn9LUcWZZ0T890z3RPf13lMpRPv37d+jTTc/qcpKCiUEAABEAgEAIJRCuQlcIwQQAENAGIFjYCCIBAUAQgWkEtFwYLAiAA0cIeAAEQCIoARCuo5cJgQQAEIFrYAyAAAkERgGgFtVwYLAiAAEQLewAEQCAoAhCtoJYLgwUBEIBoYQ+AAAgERQCiFdRyYbAgAAIQLewBEACBoAhAtIJaLgwWBEAAooU9AAKrCWSLKj/zmSrOTakiv6CSzpBKRm5U6cgNYOUBAYiWB4uAITRNgKMzJUoVmcpnP1D5/Kf0/1dHbEpHj6h0x5GmBxt9/xCt6LcAABS9sypJuiqbelkVF+c2BNLZ84BKtu4GtAYJQLQahI+u/SCQz36oisWjJFjzAweUbN6lOvt+PNAOBu4IQLTcsUXLIRCg86ve8SfXfB1cb/idvQ+qZMt4CLNr5RghWq1cVkxKSoDPr/KZd6Xm2i7dfqtKd95pVAfG9ghAtOyxREsBEsgmn1PF0ozRyJNN21Vn/0+N6sDYHgGIlj2WaCkwAnzonk08U2rU3YOPKdXZWqouKlUjANGqxg+1AyaQz76v8rmPS82gM36fSoYOmtfNl8j366Kul6Sb6F1zs3kbkdeAaEW+AWKefu/475Sig/gyJR29nXy27hBX5VfQfO4j+kp5guos+4Al2n0i3fEdOtgfE7cVuyFEK/YdEOn8i/NT2i+rbEm27Ved3feLqrNYsVvFWg6r/UeurtJfJDfvFLUXuxFEK/YdEOn8s2/eUMXCV+Vnn25R3UOPD6yfn35HXwkaVFiwOvseHmSGf2eNR7JW7IPoCNB1nd6x39CDT6/S1LsHf0aH8UPrtqGvBNFTlrR0DjxCD10jUvNo7SBa0S59vBPnJyx+0qpaNjqML85NquzkH426YN8v9gFD2ZgARAs7JDoC2clXKILDROV5r3eBuugtKPb/UvSl0KSk19ys0l13m1SJ0haiFeWyRzxpCjXTO/ZbAnB1FAdTKuzywE9bVxR69cy+/oOxwyq3wV8S+UI2Cp60sAdA4DKB/OwXKj/1lh0idJ6lz7VWlPz023Tw/nmp9uFpL8OGJy0ZJ1i1hIAOP0PuDraK/oJIXxK55Ge/JEF8s3zTa4hg+cbaWxOi1d61xcxWE7D4arjcNPtqsc8Wh7XJJp+v/kXy8C+xbgMIQLSwRaIhUPlJaA1S6ei36YvfbXSO9aIoHtcg2N3DvyATiqKKsi4BiBY2RzQEsulX6RrNcavz1ddv6LWuWDxmpd3OgUfJV2vYSlttbQSi1daVxbyuJECOpH2H0swuGbqCU9VJdeWAIFqDlweiNZgRLFpAgJ+w+EnL9wLRGrxCEK3BjGDRAgKV7xrWxIDjz3McepT1CUC0sDsiIFCo3tFfW32NcwUN2X4Gk4VoDWYEi8AJVA1DU+f0IVqDaUO0BjOCReAE2AOePeFDKJ3dPyK/r30hDLWxMUK0GkOPjusiUCVCaV1jXO4nHbtHpSM31N1tUP1BtIJaLgzWlEBxYVo7foZSIFqDVwqiNZgRLAImUCV5RRPTTnd8V7GXPcr6BCBa2B2tJpCdeIp8P88GM8dk06hKx+5GBusNVgyiFcx2xkBNCXAGHB2ML7RCXvbpjiOXopjiHuLq5YNohbahMV4xgX4WnA/E9r4ZcrKL5JpbVDp8Hd2h7vg2vMbGA9FqDD06dk2gTMp712Mq1T5lstZnXSPXU3U8eUG0Su0iVPKdAJ9j8XlWm4o+7xr/oeK/Yy4QrZhXv8Vzz+c/UfnMe+2bISd2Hb83agdUiFb7tjVmRAR0UD7y0WpnSShrz12Ks/fEWCBaMa562+ecLSrtBd/y0rmWXhX5kD6yAtGKbMFjmC5nw+GsOO0viersfSA6ny6IVvt3dnQztJ1xx2uA6WalY3B1R7weps3BQbRs0kRbzRNwkHGn+UltPALOBsRZgWIpEK1YVjqSeRYLXymOUhpb6ex9iF4TKclGBAWiFcEixzRFFxl3QuDH4Ww4QkQMBaIVwyrHMkdXGXdC4Ef+W91Dj5HDPGUHanmBaLV8gWOaXigZd1ytSefaH5ALxPWumvemXYiWN0uBgVQlEErGnarzXK9+LAfyEC1XOwjt1kuAkrD2k7H26u3Xq94S1T34qM543eYC0Wrz6kY0t9hfDZeXOt1+q0p33tnqlYdotXp545lc7K+Gl1eanE27Bx5Riv5ua4FotXVlo5pXOMlY61iWtj9tQbTq2EXowymBkJKxOgWxovE250+EaNW1i9CPMwIhJWN1BuGqhhNyfzikkq37VDq0n14Xt9TXteOeIFqOAaN51wTo1fDYb5WiO4co6xEgAaOs1enIjSoZOkBGYYdshmhhpwdNAK+GhsvH8ebpyk8yclOwkSEgWoZrDnO/CODVsPx6JFt30ysk3Vmk18iQrv9AtMqvOWp6QKB3nF4Ns/MejCTgIXCexeHD9PRFr48BRIqAaAW812IfOseA51jwKPYIcKafhGLPs4j56usF0bK33mipZgL5zLsqn/+05l4j6Y6Sw/KhfTpyM32B3O3VpCFaXi0HBmNCQCevoCQWKG4JJJu261fHlCNI0EF+0wWi1fQKoP9SBPBqWApbxUrkOjF0sO86QS4UTRWIVlPk0W8lAvhqWAlf9crdYf3qmF5zY+2OqxCt6suHFmonAIfS2pGv16E++zpE4vWt2r48QrS8WX0MREoADqVSUvXa8atjZ/w+551CtJwjRge2CSAMjW2idtpLtoxT8tgH7TS2QSsQLeeI0YFVAohQahWn1cY4ucZ1P7fa5FqNQbScI0YHNgkgQqlNmvbb6h7+pf1GV7UI0XKOGB3YJJBNv6aKxWM2m0RbFglAtCzCRFMtIBBzXsMglo8Saxz+hfOR4knLOWJ0YItArCnvbfFz3Q7fW+zs/4nrbhREyzlidGCLQHbyFVWcm7DVHNqxTIATxXLCWNcFouWaMNq3Q4Aik+oIpaqw0x5asUuA7iR29jyg+J6i6wLRck0Y7VshkJ/9QvHVHRQPCbBg7f3H2iKhQrQ83AMY0tUEsqmXVHH+JND4RoB8szp76Qlr867aRgbRqg01OipNgMLP6DA0KN4RSHfdpe8d1lkgWnXSRl+lCORzH6t89v1SdVHJHQEODsjnWHUXiFbdxNGfMYFs4hlVXJwzrocKDglQdAd2b0i6Iw47WbtpiFbtyNGhCYFiaUZlk8+ZVIFtDQTSHXeodPT2Gnq6uguIViPY0amUQD7zHsWB/0RqDrsaCLBbQ9+JtJmkrxCtGhYZXZQlQMH+jj+JOPBl8Tmqp/2xGkx2AdFytLBotjoBBPurztB2C3V5vW80boiW7VVFe9YIZN+8roqFo9baQ0MVCXSGVHf/w7XHhF89aohWxXVEdUcE8iV6NXyCbu1kjjpAs2YEkr4TKUUnbbpAtJpeAfS/JoH8zGcqP/0O6HhCIB09otIdR7wYDUTLi2XAIFYTYDcHdndAaZ5AsnUPOZH+PQ2kma+FeD1sfg9gBAMIFEunyTfreXDygIB2b2Cvdw8ySy/jwJOWBxsDQ7iSAL8W8ushSrMEfBQsJgLRanZfoPfVBDjbDh/A00E8SnMEdDqw3ZTDMN3S3CDW6Rmi5d2SxD0gxM1qfv21YO35ET3SdJsfzBojgGh5uSzxDorPsvhMC6UJAgndJ7yN/tBXQroQ7WuBaPm6MhGOCwfwzS16smVMpbvupmB+O5sbhLBniJYQFMzcE8hPv00H8J+77wg9XCbAIsXRGpKhg8FQgWgFs1QtHyg84Gtd4GTbPh1xNNm2v9Z+bXQG0bJBEW1UJpDPf6rymXcrt4MGNiBAB+vpyA0qYbGqIWuOq7WAaLkii3aNCGQnnlJF76xRHRjLCLBAJSM3acFS6WZZJY+tIFoeL04sQysWj6ts+tVYplvPPPmpavgwidX1XlxytjlpiJZNmmirFIFs6mVKDzZVqi4qXUmA7wnqV8ChQ167LVRZN4hWFXqoW5kAYsBXRqifpPjrXzpMQkUxr9peIFptX2HP55efelPlZ7/0fJT+DY9dFbRQ8TlVBEK1cgUgWv7tx3hGlJ1XvRMUAx6B/i6veXrNzXRYvpX+v9Cx8Yui/zcfoCccaWHzmI7PnnSH49knq2YK0Yp26ZufOLs4sKsDSp9AP8vNT4FjAAGIFrZIMwTwlHUV96YyNjezAcr3CtEqzw41KxDAU9bV8CBasg0F0ZJxgpVNAnjKWpMmREu2ySBaMk6wskgAF6PXhslfAzvjFHgPZUMCEC1skFoJFBfnVDbxLPVJX8VQriDA7gvp2D2ggoN47AGfCMD7ff3VgGjJdiqetGScYGWBQLF4jO4YvmahpXY2AdGSrStES8YJVlUJ5BdUb+K5vqMkypoEIFqyjQHRknGCVUUC/ITFT1ooeD2sugcgWlUJov5AAsXCVyr75o2BdrEb4ElLtgMgWjJOsCpJQEdx+PpF+ljYK9lCPNUgWrK1hmjJOMGqDAE6v+pxentyJkUZTACiNZgRW0C0ZJxgZUqAhCqbekkVF+dNa0ZrD9GSLT1ES8YJVgYEit6Cyk/+EYJlwIxNIVoyYBAtGSdYCQnoMywSLLwSCoGtMOPMzukOyu6MsiEBiBY2iDUCOg3Y7J8Q1K8kUYiWDBxES8YJVhsQ4NRf+el3VHFuEpwqEIBoyeBBtGScYLUWAfo6mM/9L6Wy/4L+FRegq24SiJaMIERLxglWywTI36o49zUlo/jzpScriJWtzQHRkpGEaMk4xWtFSSeKC6coL+FJ+pv+nJ/GU5Wj3QDRkoGFaMk4td+KM78szfVT09Of4uKZv/6NV79a1h+iJcMM0ZJxapUVCxMfmvPTU1+gyAEUabwaX2OIlmwJIFoyTsFbFRemVbFwtC9W/DSF4h0BiJZsSSBaMk7BWrFI5XMf6nMpFL8JQLRk6wPRknEKzypfUjpNF1LOB7N2EC3ZUkG0ZJyCstLOnidfwd2/oFaN7h7iGo9oxSBaIkzhGPHZVXbyVaUovDFKWAQgWrL1gmjJOAVhxa+C+an/prHC4TOIBVs1SIiWbNUgWjJO3lvlsx/QgftH3o8TA1yfQLrzTpVuvxWIBhCAaIW+RehaTUZPV+zOgBI2AU7UyjG1UDYmANEKeYdwdNDp/4I7Q8hruGLsEC3ZQkK0ZJz8s2LB+voPcBT1b2VKjwiiJUMH0ZJx8ssK8df9Wg9Lo4FoyUBCtGSc/LGCYPmzFpZHAtGSAYVoyTj5YcWH7lOUMIJ8sVDaRwCiJVtTiJaMU/NWEKzm18DxCCBaMsAQLRmnZq0obEw29Z94wmp2FZz3DtGSIYZoyTg1aFWQW8Prqlg81uAY0HUdBCBaMsoQLRmnxqzyU28iUkNj9OvtGKIl4w3RknFqxCo/85lOzYUSBwGIlmydIVoyTrVb6WgNX79E/eLyc+3wG+oQoiUDD9GScarXinyxepPPIrV8vdQb7w2iJVsCiJaMU41WdPBOT1jwxaoRuSddQbRkCwHRknGqzYrPsPgsCyU+AhAt2ZpDtGScarHqB/F7s5a+0Il/BCBasjWBaMk4ObcqlmbotfBFOnfvOe8LHfhJAKIlWxeIloyTWyv2eJ98Doko3FL2vnWIlmyJIFoyTk6t8pn3VD7/idM+0Lj/BCBasjWCaMk4ObPiJKoczA/+WM4QB9MwREu2VBAtGSc3VngtdMM10FYhWrKFg2jJODmxwmuhE6zBNgrRki0dREvGyboVXgutIw2+QYiWbAkhWjJOdq3wWmiXZ0tag2jJFhKiJeNk1QqvhVZxtqYxiJZsKSFaMk7WrIql0+ST9by19tBQewhAtGRrCdGScbJmxV7vuAxtDWerGoJoyZYToiXjZMWKU9dn37xupS000j4CEC3ZmkK0ZJyqW9Hhe2/iaaV6C9XbQgutJADRki0rREvGqbJVPveRymc/qNwOGmgvAYiWbG0hWjJO1ayyRdU7QU9ZiOBQjWPLa0O0ZAsM0ZJxqmSVffOGKha+qtQGKrefAERLtsYQLRmn0lZ9z/cXStdHxXgIpGPfV+nITfFMuORMIVolwUmrsWCxcKGAwCAC6egRle44Msgs+n+HaDncAsXiccoO/arDHtB0mwhAtGSrCdGScSplBUfSUtiirQTRki09REvGydiqOH9SZVOcbBUFBGQEIFoyThAtGSdjKxYsFi4UEJASgGjJSEG0ZJyMrHRmHUpUgQICJgQgWjJaEC0ZJyMrPnznQ3gUEDAhANGS0YJoyTiJrYqLcyqbeEZsD0MQWCYA0ZLtBYiWjJPYijNEc6ZoFBAwJQDRkhGDaMk4iayK3lmVnfg92RYiexiBwEoCEC3ZfoBoyTiJrPLTb6v8zOciWxiBwGoCEC3ZnoBoyTgNtuJ4WcefUCpfGmwLCxBYg0B6zc0q3XU32AwgANGytEUQldQSyIibSUduUBzpAWVjAhAtSzskm3qZnEmnLLWGZmIkANGSrTpES8ZpQ6uCQihnJ5600BKaiJkAREu2+hAtGacNrfLZD1U+96GFltBEzAQgWrLVh2jJOG1o1Tv+O6UopDIKCFQhANGS0YNoyTita8XnWHyehQICVQlAtGQEIVoyTutacR5D/nKIAgJVCSRbd6vOngeqNtP6+hCtKktMPlnaN4t8tFBAoCoBiJaMIERLxmlNK75jyHcNUUDABgGIlowiREvGaU0rvBpWgIeqVxGAaMk2BURLxmkNq0L1jv4aCVhL80PF1QSSLWOqs/chgBlAAKJVcosgBnxJcKi2PoHusOoeeBSEIFpu9kA++z45lH7spnG0GicBiJZo3fGkJcJ0tRGSsJYEh2p40qq4ByBaZQByGJqj/041EeyvDD7UWY9AorqHfwE8eD20vwdwnmWfKVrsE+ge/iVQQLTs74F87iOVz35gv2G0GD2B7sGfKdUZip7DRgDwelhie2QnX1HFuYkSNVEFBDYm0Nn/U5Vs2g5MGxCAaJXYHtnE06q4OF+iJqqAwADRoruH7GSKsj4BiFaJ3dH7y6+oFg7hS6BDlQEEOEY8x4pHgWjZ2wMUN0vHz0IBAQcEkqFDqjN+r4OW29MknrQM1xLxswyBwdyMQNJV3ev+heokZvUisoZoGS42IjsYAoO5MQGOqYVzLbweGm+c9SpwMlZOyooCAq4IpKPfVumO77pqPvh28aRluIRIYmEIDObGBJLuiOoceMS4XiwVIFqGK53PvKvy+U8Na8EcBMwIdPY9rJLNO80qRWIN0TJcaI5UyudaKCDgkkA6eju9It7hsotg24ZoGS4dRMsQGMxLEeCnLH7aQrmaAETLcFfgTMsQGMxLE8A9xLXRQbQMtxREyxAYzEsTSMe+r9KRm0rXb2tFiJbhykK0DIHBvDQBJG/Fk1bpzbOyIpxLrWBEIwICyaZR1dn/E4FlXCZ40jJcb4iWITDfzdPNKulso6gdc16OtHvwMYqvtdXLsTU1KIiWIXmIliEwz807ex9UKu+p7OQfvRxpuusuivrwLS/H1tSgIFqG5BFq2RCY5+bL9/yyqZcVX4b3rXBAQA4MiPJXAhAtw91QXJhW2dcvGtaCua8EOtf+QCXD1+ugjtnEMzRM/+KkdcbvU8nQQV8R1j4uiJYpcsTTMiXmtX06dg+5Fdygx8hx/zn+v2+lfxfxn2lYCFfDawPRKrFDEbm0BDRPq6wULUWp4fhpq+id9W60V4zTu9HVOyCIVgne2YmnvNzYJaYSfZXVsau8PbOkDD1dftpKOtGvGUSrxBbw9dC2xFSir9LZ92OKprDrCg756XdUfuYz79hwjC2OtRV7gWiV2AH5qbco0sMXJWqiim8E1vSDKnqqd+Jppej80qvCoZgP0JfEyPMi1iZaxeJxldMf1TtDRwfnVcKPud1hlW6/jULL7vFqbwwaDJK1DiIUyL/THuxe969rDpb3azb9qncT4a+I/DUx5lKLaA0KnLf82TmUhSgWvlLZN2+EMlyMcx0Cg3ygsunXVLF4zDt+nd33q2Tbfu/GVdeAnIsWR/lk0dqw0FUKfciYbqlr3pX6ga9WJXzeVOYffBaAdQu9EfQoMa/Kl7wZsx4IvaF02eE00kN5t6JFi92jL22SRQ8qDEd+QfWO/cavjYzRGBPg6zF8TWaj4uu1rZiTXzgVLZOzHz7bSnd+z3jjNVVBixaJF0q4BNKdd9KZ6q0DJ8D3EotzkwPt6jVI6HrPPymOBBFbcSpa2dRLdJ/rpIhpsmVc6curgRSTuQUypeiGKb0eU/QW+ld86KuiTyW0nxlb7JyKVu/Ek/S1cEE4VvrNQedafGUhhMK5DzkHIkq4BEwy3ojOZhtAEdSxiiU+bkXr6L/Rb6dMPNSQPuey8yE7IaKES6B73c/pMLsrnEBBF+X/oIoLp4T2NZkF9hHLBhW3ovWXX9EYzW7Nh/I5F18QbWy/BtugL9XdQ48bDUBHgph8zugXsVEHJY2ToUPku3VvydrhVXMrWkavh5fg8WZir1/f3R/4y+ix/whvxTFiTaDseZCvOQJC83Wssg2dihbHneInEtMSymui2ZmdKQXYuyTAWW74PMi80Gvi5POqWJoxr+qyBr8m0tfEGK74OBWtKoeX6a67KczszS6XuXLbSNxaGWFjDbB7DbvZlCl8rsXnW6ZHH2X6Mqkz0FnWpDGPbZ2KlqriUUwHpPoGPoWb9bX46njoKy+fxtXZ8w+V7rzmM++pfP4Tn6akxxLCL/uq0NyKFo2uytNWPzX4j/kEouo8ndTX/jt8bocSGIGkfwhPr1SlC30V11d8xC49pXsyq0hXe/q/7NvrdOpctPgROpt4tnSKJt8TVuJcy+xnygdrjirCT1pVi68BA3W+RP5l39K7iTWIFslWxTMAn4Of4Vyr6o9+/fWl13ckI/M2YCCdB/OrYhtLLaLF4Kp9KiZv+d1/52U4Dg5dwiFMUMIhsDrEcqWRs+sLvUl4FzCQJiW9plRp/g1Urk209Gvi5Av0qfh0uWnywfyeH2n/Gr9KoXrHn6BNe96vYWE06xLgr9IJRXjgzNKVzrUu9VCcm6Bkr6/4R5zO7PRVJQpl06ZSo2iRbGmP4ufLXzz1VLjy2fcp9dTHbdoXkcwloS+Iu3UG56p5BX09JuD49519D9F6+vkxq8xGq1W09Gvi2S8VL3Dp4qFw4Sti6dX0piJ/qU6uuYVyIF5f7gecY6xxXHkPwxVx+B0+x2tLqV20GByHKuaQxaULC9fY31Jm4OtKN2G7op8xl2zPsv3tcZSRZPT2UuLl8/lmm863GhEtjkuk3SAqJsXsR578m3K/GS3//BXnpxSnFkNpBwF2G+C9ZZp0xde48nx215bzrWZEi/Y1393SVyEMQtes9eOg39l3U3YSD9IqITBgOwRr5SyS4evpqZ5cB6QhbKrcAnGMr39J/AEvfslXmWpjosWDtvY4TREhOuM/NP6tWAXcWnV9dTa0Pc/Y2jP9xVj53NYh4DbElm9UtHht+P4W3+OqXhLKvktnETuOVG+qQgt42qoAz+eqna2qy17mwid6doFgVwgfS2c3uQ5t2+fj0ERjaly0tHBRijG+o2ij8GKwJ3BTvil97/8XbEwFbXhGQN+F5TwGkldFyk6tnU59Sz/GTDlm3f6HxQLs2TIoL0RLO55Ov24vMSZtKv3UNcqhR+r3T/H2MNa33RfgeExivfkckjtk/y1PRIsPuOiL4hSlaioRNHC9va+/ALFrxJaxWn88+KtoduL3PKla+0Vn9RAwCf/i83GBJO9jPUTNevFHtHjc9CVR+3BZTkXOvx35yYsf7+sqvl6krWv+re7HIEqor+nHltcnxDDNfomWJlnoLDcu0nPVKl4eX6RttaDUNLm2vCby+Ryf09X5C73qEnkoWv0p5bMf0H2+j6rOb436dN9s6ADdN7tF3ztzWby9SOty0hG1bZI5ij/OeJd+7NJa8S0AHX+rSlDEGtfdW9HSwkVfFPvuEG7OhvjMKxm5UaXDh+lLylYn2PNTb9F9yy+ctI1GmyWgf9gpwbDkY4+v6ceWCfJXd3aFCKF4LVr6ZZEO5vmcy21YW3r6YlcJusuob/tLPmmLV5e+jGqfnUlxDRiGQyDddZeOEiEp9nwSJb2Z26SjRxr3c5SM2nvR0pOg86GM0tAXC0clc6pmQ4Klz75YwLQDngWXCQdfRqtNErWtEdAZnh8Rvlp5mqX6MgwOtnm/946nYYjWJajF4nESr/+pL0okOeGlw4dIxOjPlmurxdyGcFnTCd8aMgkH7vtrYgiOp0GJ1vJTVz77JydfFzf8YdBPYPtVum1//zdRmQzYJFy9iWccv+r69iMdwXj4is+BR8W/1Hx/TfTd8TQ80Vp+6qLrMuwaUTp8c6WfJY54Oa5j1vOrJB/ISot+Wpx+VWoOu0AIcLZqzlotK76/JtLvZI/Pt4IVreXNoW/UU7jjJmO068BxLF6Umkq7UayXuomcZ/P5/+uPF6VVBEzTkvnudMpnuTp/Yo0O2dINEbxoXX5lnP+Y/Lo4468b9wgpUBYs7UqxmZJlshtFkVNs/DNKUXz8IjtXOX6YeBwwrJkAJ4B9zOjYwOe7iQzP12TJ7RCt5VdGuvOnXxnhXlDzDyy6YwImzqbLxHwP052O3UOvvTd4tcCtEq1lsixafFjP0VFRQKAuAiZfES+PyecQNvy0pR1oyaXDo9JK0bosXnTxOp95v3Iseo/WC0PxmEDZw2trEXwdsdGx5T0622q1aPXXkC5gn/1K32X0MQuwo32GZhsgUFa0eKiVM1Q5nG//QH6Xwx7Mmo5AtC4B4S93Zz6nr3eUVBXZoM12CaxFBCql6fLUh8/kfqUIkgWjeETr8jtjj8TrC4iXhc2DJlYQIOfj7qHHxQ6maxdNFIIAAAKISURBVLHrh+qmDFVNfwFfMbjO+L36RohPJT7Ruixe9ORFdxkLCn9TNf+iTwuKsTRDgBMHd679YeXOffKW1+nTrv1B5TnZbiBe0bpMsqBIqSd07C58bbS9veJpz+YTiQ85BnzOkQjRWvFzxVeCirN/1gf3HLMeBQREBCitWPcg3T20ERGEO+TL9ZPPk1PyvKh720Y6Kis/YVkN0WRvlBCtNQ8XLr06LnzZjzZZMQu2veVCS74R0GGMdn7P6P6pZA46OcokpaLLL0jMLdlw7tDbKKbWd+wJsKWRrWwGojUIKgkWCxdnj1bZAunXeR3fS/9tUjLafHh6MyHmny1F9kg20T1T/vxPf1KO9uEo4q1+4OIAmNOvuf/aTTHBkm17Vbr9Nq9cG9bbABAt/340Bo+IfvsWuaXXV04mml8c3KfEgsXcVlsb9cdPvqa/NAaNn8VnxUX3JKHgj8vZpLvD9E9X/vug5mz9O1+s1sEv9T1WWvOlWR3ZpKC/r/jKSGPkknCc93RTv3sav57Hpf/mGPBJZ1u/re6Qfpq6Yp62Bu24HYiWY8BoHgRAwC4BiJZdnmgNBEDAMQGIlmPAaB4EQMAuAYiWXZ5oDQRAwDEBiJZjwGgeBEDALgGIll2eaA0EQMAxAYiWY8BoHgRAwC4BiJZdnmgNBEDAMQGIlmPAaB4EQMAuAYiWXZ5oDQRAwDEBiJZjwGgeBEDALgGIll2eaA0EQMAxAYiWY8BoHgRAwC4BiJZdnmgNBEDAMQGIlmPAaB4EQMAuAYiWXZ5oDQRAwDEBiJZjwGgeBEDALgGIll2eaA0EQMAxAYiWY8BoHgRAwC4BiJZdnmgNBEDAMQGIlmPAaB4EQMAugf8HDwO3TIrzcsoAAAAASUVORK5CYII=;" vertex="1" parent="CqSl_4f9jDyDH8PWOEyv-35">
          <mxGeometry y="21" width="301" height="301" as="geometry" />
        </mxCell>
        <mxCell id="CqSl_4f9jDyDH8PWOEyv-17" value="Objekt 2" style="text;strokeColor=none;fillColor=none;html=1;fontSize=24;fontStyle=1;verticalAlign=middle;align=center;" vertex="1" parent="CqSl_4f9jDyDH8PWOEyv-35">
          <mxGeometry x="100.5" width="100" height="40" as="geometry" />
        </mxCell>
        <mxCell id="CqSl_4f9jDyDH8PWOEyv-18" value="Susi" style="text;html=1;align=center;verticalAlign=middle;whiteSpace=wrap;rounded=0;" vertex="1" parent="CqSl_4f9jDyDH8PWOEyv-35">
          <mxGeometry x="120.5" y="200" width="60" height="30" as="geometry" />
        </mxCell>
        <mxCell id="CqSl_4f9jDyDH8PWOEyv-37" value="Eigenschaften" style="swimlane;fontStyle=0;childLayout=stackLayout;horizontal=1;startSize=30;horizontalStack=0;resizeParent=1;resizeParentMax=0;resizeLast=0;collapsible=1;marginBottom=0;whiteSpace=wrap;html=1;" vertex="1" parent="1">
          <mxGeometry x="800" y="180" width="140" height="210" as="geometry" />
        </mxCell>
        <mxCell id="CqSl_4f9jDyDH8PWOEyv-38" value="Name = Bobby" style="text;strokeColor=none;fillColor=none;align=left;verticalAlign=middle;spacingLeft=4;spacingRight=4;overflow=hidden;points=[[0,0.5],[1,0.5]];portConstraint=eastwest;rotatable=0;whiteSpace=wrap;html=1;" vertex="1" parent="CqSl_4f9jDyDH8PWOEyv-37">
          <mxGeometry y="30" width="140" height="30" as="geometry" />
        </mxCell>
        <mxCell id="CqSl_4f9jDyDH8PWOEyv-65" value="Geschlecht = männlich" style="text;strokeColor=none;fillColor=none;align=left;verticalAlign=middle;spacingLeft=4;spacingRight=4;overflow=hidden;points=[[0,0.5],[1,0.5]];portConstraint=eastwest;rotatable=0;whiteSpace=wrap;html=1;" vertex="1" parent="CqSl_4f9jDyDH8PWOEyv-37">
          <mxGeometry y="60" width="140" height="30" as="geometry" />
        </mxCell>
        <mxCell id="CqSl_4f9jDyDH8PWOEyv-39" value="Fellfarbe = Schwarz" style="text;strokeColor=none;fillColor=none;align=left;verticalAlign=middle;spacingLeft=4;spacingRight=4;overflow=hidden;points=[[0,0.5],[1,0.5]];portConstraint=eastwest;rotatable=0;whiteSpace=wrap;html=1;" vertex="1" parent="CqSl_4f9jDyDH8PWOEyv-37">
          <mxGeometry y="90" width="140" height="30" as="geometry" />
        </mxCell>
        <mxCell id="CqSl_4f9jDyDH8PWOEyv-40" value="Augenfarbe = Braun" style="text;strokeColor=none;fillColor=none;align=left;verticalAlign=middle;spacingLeft=4;spacingRight=4;overflow=hidden;points=[[0,0.5],[1,0.5]];portConstraint=eastwest;rotatable=0;whiteSpace=wrap;html=1;" vertex="1" parent="CqSl_4f9jDyDH8PWOEyv-37">
          <mxGeometry y="120" width="140" height="30" as="geometry" />
        </mxCell>
        <mxCell id="CqSl_4f9jDyDH8PWOEyv-41" value="Größe = 56 cm" style="text;strokeColor=none;fillColor=none;align=left;verticalAlign=middle;spacingLeft=4;spacingRight=4;overflow=hidden;points=[[0,0.5],[1,0.5]];portConstraint=eastwest;rotatable=0;whiteSpace=wrap;html=1;" vertex="1" parent="CqSl_4f9jDyDH8PWOEyv-37">
          <mxGeometry y="150" width="140" height="30" as="geometry" />
        </mxCell>
        <mxCell id="CqSl_4f9jDyDH8PWOEyv-42" value="Gewicht = 30 kg" style="text;strokeColor=none;fillColor=none;align=left;verticalAlign=middle;spacingLeft=4;spacingRight=4;overflow=hidden;points=[[0,0.5],[1,0.5]];portConstraint=eastwest;rotatable=0;whiteSpace=wrap;html=1;" vertex="1" parent="CqSl_4f9jDyDH8PWOEyv-37">
          <mxGeometry y="180" width="140" height="30" as="geometry" />
        </mxCell>
        <mxCell id="CqSl_4f9jDyDH8PWOEyv-43" value="Methoden" style="swimlane;fontStyle=0;childLayout=stackLayout;horizontal=1;startSize=30;horizontalStack=0;resizeParent=1;resizeParentMax=0;resizeLast=0;collapsible=1;marginBottom=0;whiteSpace=wrap;html=1;" vertex="1" parent="1">
          <mxGeometry x="950" y="180" width="140" height="150" as="geometry" />
        </mxCell>
        <mxCell id="CqSl_4f9jDyDH8PWOEyv-44" value="Sitzen" style="text;strokeColor=none;fillColor=none;align=left;verticalAlign=middle;spacingLeft=4;spacingRight=4;overflow=hidden;points=[[0,0.5],[1,0.5]];portConstraint=eastwest;rotatable=0;whiteSpace=wrap;html=1;" vertex="1" parent="CqSl_4f9jDyDH8PWOEyv-43">
          <mxGeometry y="30" width="140" height="30" as="geometry" />
        </mxCell>
        <mxCell id="CqSl_4f9jDyDH8PWOEyv-45" value="Hinlegen" style="text;strokeColor=none;fillColor=none;align=left;verticalAlign=middle;spacingLeft=4;spacingRight=4;overflow=hidden;points=[[0,0.5],[1,0.5]];portConstraint=eastwest;rotatable=0;whiteSpace=wrap;html=1;" vertex="1" parent="CqSl_4f9jDyDH8PWOEyv-43">
          <mxGeometry y="60" width="140" height="30" as="geometry" />
        </mxCell>
        <mxCell id="CqSl_4f9jDyDH8PWOEyv-46" value="Schwanz wedeln" style="text;strokeColor=none;fillColor=none;align=left;verticalAlign=middle;spacingLeft=4;spacingRight=4;overflow=hidden;points=[[0,0.5],[1,0.5]];portConstraint=eastwest;rotatable=0;whiteSpace=wrap;html=1;" vertex="1" parent="CqSl_4f9jDyDH8PWOEyv-43">
          <mxGeometry y="90" width="140" height="30" as="geometry" />
        </mxCell>
        <mxCell id="CqSl_4f9jDyDH8PWOEyv-47" value="Bellen" style="text;strokeColor=none;fillColor=none;align=left;verticalAlign=middle;spacingLeft=4;spacingRight=4;overflow=hidden;points=[[0,0.5],[1,0.5]];portConstraint=eastwest;rotatable=0;whiteSpace=wrap;html=1;" vertex="1" parent="CqSl_4f9jDyDH8PWOEyv-43">
          <mxGeometry y="120" width="140" height="30" as="geometry" />
        </mxCell>
        <mxCell id="CqSl_4f9jDyDH8PWOEyv-48" value="Eigenschaften" style="swimlane;fontStyle=0;childLayout=stackLayout;horizontal=1;startSize=30;horizontalStack=0;resizeParent=1;resizeParentMax=0;resizeLast=0;collapsible=1;marginBottom=0;whiteSpace=wrap;html=1;" vertex="1" parent="1">
          <mxGeometry x="800" y="550" width="140" height="210" as="geometry" />
        </mxCell>
        <mxCell id="CqSl_4f9jDyDH8PWOEyv-49" value="Name = Susi" style="text;strokeColor=none;fillColor=none;align=left;verticalAlign=middle;spacingLeft=4;spacingRight=4;overflow=hidden;points=[[0,0.5],[1,0.5]];portConstraint=eastwest;rotatable=0;whiteSpace=wrap;html=1;" vertex="1" parent="CqSl_4f9jDyDH8PWOEyv-48">
          <mxGeometry y="30" width="140" height="30" as="geometry" />
        </mxCell>
        <mxCell id="CqSl_4f9jDyDH8PWOEyv-66" value="Geschlecht = weiblich" style="text;strokeColor=none;fillColor=none;align=left;verticalAlign=middle;spacingLeft=4;spacingRight=4;overflow=hidden;points=[[0,0.5],[1,0.5]];portConstraint=eastwest;rotatable=0;whiteSpace=wrap;html=1;" vertex="1" parent="CqSl_4f9jDyDH8PWOEyv-48">
          <mxGeometry y="60" width="140" height="30" as="geometry" />
        </mxCell>
        <mxCell id="CqSl_4f9jDyDH8PWOEyv-50" value="Fellfarbe = Weiß" style="text;strokeColor=none;fillColor=none;align=left;verticalAlign=middle;spacingLeft=4;spacingRight=4;overflow=hidden;points=[[0,0.5],[1,0.5]];portConstraint=eastwest;rotatable=0;whiteSpace=wrap;html=1;" vertex="1" parent="CqSl_4f9jDyDH8PWOEyv-48">
          <mxGeometry y="90" width="140" height="30" as="geometry" />
        </mxCell>
        <mxCell id="CqSl_4f9jDyDH8PWOEyv-51" value="Augenfarbe = Braun" style="text;strokeColor=none;fillColor=none;align=left;verticalAlign=middle;spacingLeft=4;spacingRight=4;overflow=hidden;points=[[0,0.5],[1,0.5]];portConstraint=eastwest;rotatable=0;whiteSpace=wrap;html=1;" vertex="1" parent="CqSl_4f9jDyDH8PWOEyv-48">
          <mxGeometry y="120" width="140" height="30" as="geometry" />
        </mxCell>
        <mxCell id="CqSl_4f9jDyDH8PWOEyv-52" value="Größe = 30 cm" style="text;strokeColor=none;fillColor=none;align=left;verticalAlign=middle;spacingLeft=4;spacingRight=4;overflow=hidden;points=[[0,0.5],[1,0.5]];portConstraint=eastwest;rotatable=0;whiteSpace=wrap;html=1;" vertex="1" parent="CqSl_4f9jDyDH8PWOEyv-48">
          <mxGeometry y="150" width="140" height="30" as="geometry" />
        </mxCell>
        <mxCell id="CqSl_4f9jDyDH8PWOEyv-53" value="Gewicht = 15 kg" style="text;strokeColor=none;fillColor=none;align=left;verticalAlign=middle;spacingLeft=4;spacingRight=4;overflow=hidden;points=[[0,0.5],[1,0.5]];portConstraint=eastwest;rotatable=0;whiteSpace=wrap;html=1;" vertex="1" parent="CqSl_4f9jDyDH8PWOEyv-48">
          <mxGeometry y="180" width="140" height="30" as="geometry" />
        </mxCell>
        <mxCell id="CqSl_4f9jDyDH8PWOEyv-54" value="Methoden" style="swimlane;fontStyle=0;childLayout=stackLayout;horizontal=1;startSize=30;horizontalStack=0;resizeParent=1;resizeParentMax=0;resizeLast=0;collapsible=1;marginBottom=0;whiteSpace=wrap;html=1;" vertex="1" parent="1">
          <mxGeometry x="950" y="550" width="140" height="150" as="geometry" />
        </mxCell>
        <mxCell id="CqSl_4f9jDyDH8PWOEyv-55" value="Sitzen" style="text;strokeColor=none;fillColor=none;align=left;verticalAlign=middle;spacingLeft=4;spacingRight=4;overflow=hidden;points=[[0,0.5],[1,0.5]];portConstraint=eastwest;rotatable=0;whiteSpace=wrap;html=1;" vertex="1" parent="CqSl_4f9jDyDH8PWOEyv-54">
          <mxGeometry y="30" width="140" height="30" as="geometry" />
        </mxCell>
        <mxCell id="CqSl_4f9jDyDH8PWOEyv-56" value="Hinlegen" style="text;strokeColor=none;fillColor=none;align=left;verticalAlign=middle;spacingLeft=4;spacingRight=4;overflow=hidden;points=[[0,0.5],[1,0.5]];portConstraint=eastwest;rotatable=0;whiteSpace=wrap;html=1;" vertex="1" parent="CqSl_4f9jDyDH8PWOEyv-54">
          <mxGeometry y="60" width="140" height="30" as="geometry" />
        </mxCell>
        <mxCell id="CqSl_4f9jDyDH8PWOEyv-57" value="Schwanz wedeln" style="text;strokeColor=none;fillColor=none;align=left;verticalAlign=middle;spacingLeft=4;spacingRight=4;overflow=hidden;points=[[0,0.5],[1,0.5]];portConstraint=eastwest;rotatable=0;whiteSpace=wrap;html=1;" vertex="1" parent="CqSl_4f9jDyDH8PWOEyv-54">
          <mxGeometry y="90" width="140" height="30" as="geometry" />
        </mxCell>
        <mxCell id="CqSl_4f9jDyDH8PWOEyv-58" value="Bellen" style="text;strokeColor=none;fillColor=none;align=left;verticalAlign=middle;spacingLeft=4;spacingRight=4;overflow=hidden;points=[[0,0.5],[1,0.5]];portConstraint=eastwest;rotatable=0;whiteSpace=wrap;html=1;" vertex="1" parent="CqSl_4f9jDyDH8PWOEyv-54">
          <mxGeometry y="120" width="140" height="30" as="geometry" />
        </mxCell>
        <mxCell id="CqSl_4f9jDyDH8PWOEyv-59" value="" style="group" vertex="1" connectable="0" parent="1">
          <mxGeometry x="356" y="547" width="134" height="73" as="geometry" />
        </mxCell>
        <mxCell id="CqSl_4f9jDyDH8PWOEyv-20" value="" style="shape=flexArrow;endArrow=classic;html=1;rounded=0;entryX=0;entryY=0.5;entryDx=0;entryDy=0;exitX=1;exitY=0;exitDx=0;exitDy=0;" edge="1" parent="CqSl_4f9jDyDH8PWOEyv-59">
          <mxGeometry width="50" height="50" relative="1" as="geometry">
            <mxPoint y="36" as="sourcePoint" />
            <mxPoint x="134" y="37" as="targetPoint" />
          </mxGeometry>
        </mxCell>
        <mxCell id="CqSl_4f9jDyDH8PWOEyv-21" value="&lt;b&gt;Objektinstanz erzeugen&lt;/b&gt;" style="text;html=1;align=center;verticalAlign=middle;whiteSpace=wrap;rounded=0;" vertex="1" parent="CqSl_4f9jDyDH8PWOEyv-59">
          <mxGeometry x="34" width="60" height="30" as="geometry" />
        </mxCell>
        <mxCell id="CqSl_4f9jDyDH8PWOEyv-22" value="new Hund();" style="text;html=1;align=center;verticalAlign=middle;whiteSpace=wrap;rounded=0;" vertex="1" parent="CqSl_4f9jDyDH8PWOEyv-59">
          <mxGeometry x="29" y="43" width="70" height="30" as="geometry" />
        </mxCell>
        <mxCell id="CqSl_4f9jDyDH8PWOEyv-60" value="" style="group" vertex="1" connectable="0" parent="1">
          <mxGeometry x="385" y="247" width="70" height="70" as="geometry" />
        </mxCell>
        <mxCell id="CqSl_4f9jDyDH8PWOEyv-8" value="&lt;b&gt;Objektinstanz erzeugen&lt;/b&gt;" style="text;html=1;align=center;verticalAlign=middle;whiteSpace=wrap;rounded=0;" vertex="1" parent="CqSl_4f9jDyDH8PWOEyv-60">
          <mxGeometry x="5" width="60" height="30" as="geometry" />
        </mxCell>
        <mxCell id="CqSl_4f9jDyDH8PWOEyv-9" value="new Hund();" style="text;html=1;align=center;verticalAlign=middle;whiteSpace=wrap;rounded=0;" vertex="1" parent="CqSl_4f9jDyDH8PWOEyv-60">
          <mxGeometry y="40" width="70" height="30" as="geometry" />
        </mxCell>
        <mxCell id="CqSl_4f9jDyDH8PWOEyv-6" value="" style="shape=flexArrow;endArrow=classic;html=1;rounded=0;entryX=0;entryY=0.5;entryDx=0;entryDy=0;exitX=1;exitY=0;exitDx=0;exitDy=0;" edge="1" parent="1" source="CqSl_4f9jDyDH8PWOEyv-1" target="CqSl_4f9jDyDH8PWOEyv-2">
          <mxGeometry width="50" height="50" relative="1" as="geometry">
            <mxPoint x="390" y="320" as="sourcePoint" />
            <mxPoint x="440" y="270" as="targetPoint" />
          </mxGeometry>
        </mxCell>
        <mxCell id="CqSl_4f9jDyDH8PWOEyv-67" value="&lt;h1&gt;Code:&lt;/h1&gt;&lt;p&gt;Hund bob = new Hund();&lt;br&gt;bob.setName(&quot;Bobby&quot;);&lt;br&gt;...&lt;br&gt;bob.bellen();&lt;br&gt;bob.schwanzWedeln(5);&lt;br&gt;...&lt;br&gt;&lt;/p&gt;" style="text;html=1;spacing=5;spacingTop=-20;whiteSpace=wrap;overflow=hidden;rounded=0;" vertex="1" parent="1">
          <mxGeometry x="950" y="340" width="190" height="150" as="geometry" />
        </mxCell>
        <mxCell id="CqSl_4f9jDyDH8PWOEyv-68" value="&lt;h1&gt;Code:&lt;/h1&gt;&lt;p&gt;Hund susi = new Hund();&lt;br&gt;susi.setName(&quot;Susi&quot;);&lt;br&gt;susi.setGeschlecht(&quot;weiblich&quot;);&lt;br&gt;...&lt;br&gt;susi.sitzen();&lt;br&gt;susi.hinlegen();&lt;br&gt;...&lt;br&gt;&lt;/p&gt;" style="text;html=1;spacing=5;spacingTop=-20;whiteSpace=wrap;overflow=hidden;rounded=0;" vertex="1" parent="1">
          <mxGeometry x="950" y="720" width="190" height="150" as="geometry" />
        </mxCell>
      </root>
    </mxGraphModel>
  </diagram>
</mxfile>
